<?xml version="1.0" encoding="utf-8"?>
<!-- Generator: Adobe Illustrator 24.1.1, SVG Export Plug-In . SVG Version: 6.00 Build 0)  -->
<svg version="1.1" id="Calque_1" xmlns="http://www.w3.org/2000/svg" xmlns:xlink="http://www.w3.org/1999/xlink" x="0px" y="0px"
	 viewBox="0 0 1200 1200" style="enable-background:new 0 0 1200 1200;" xml:space="preserve">
<style type="text/css">
	.st0{fill:#DEF0F3;}
	.st1{fill:url(#SVGID_1_);}
	.st2{fill:url(#SVGID_2_);}
	.st3{fill:url(#SVGID_3_);}
	.st4{fill:url(#SVGID_4_);}
	.st5{fill:url(#SVGID_5_);}
	.st6{fill:url(#SVGID_6_);}
	.st7{fill:url(#SVGID_7_);}
	.st8{fill:#58BFC9;}
	.st9{font-family:'FuturaPT-Demi';}
	.st10{font-size:134.9831px;}
</style>
<rect class="st0" width="1200" height="1200"/>
<g>
	
		<linearGradient id="SVGID_1_" gradientUnits="userSpaceOnUse" x1="681.278" y1="890.3515" x2="681.278" y2="122.3642" gradientTransform="matrix(0.9859 -0.1674 0.1674 0.9859 -83.1647 29.7531)">
		<stop  offset="1.063830e-02" style="stop-color:#58BFC9"/>
		<stop  offset="0.7819" style="stop-color:#E4C11B"/>
	</linearGradient>
	<path class="st1" d="M598.8,195.1l21-3.6l10.3,60.4c0.9,5,7.9,5.6,9.7,1l31.1-96.8c1.1-3.6-2-6.6-5.3-6l-21,3.6l-10.3-60.4
		c-0.9-5-7.9-5.6-9.7-1l-31.1,96.8C592.2,191.9,595.5,195.6,598.8,195.1z"/>
	
		<linearGradient id="SVGID_2_" gradientUnits="userSpaceOnUse" x1="306.737" y1="907.7394" x2="306.737" y2="139.752" gradientTransform="matrix(0.9859 -0.1674 0.1674 0.9859 -83.1647 29.7531)">
		<stop  offset="1.063830e-02" style="stop-color:#58BFC9"/>
		<stop  offset="0.7819" style="stop-color:#E4C11B"/>
	</linearGradient>
	<path class="st2" d="M333.4,401.2L302,348.6l18.9-11c3.1-2.2,3.2-6.6,0.3-8.7l-86-53.6c-3.9-2.8-9.1,2.4-6.7,6.3l31.4,52.5
		l-18.9,11c-3.1,2.2-3.2,6.6-0.3,8.7l86,53.6C330.7,411.1,335.9,405.9,333.4,401.2z"/>
	<linearGradient id="SVGID_3_" gradientUnits="userSpaceOnUse" x1="527.2383" y1="830.3216" x2="527.2383" y2="62.3342">
		<stop  offset="1.063830e-02" style="stop-color:#58BFC9"/>
		<stop  offset="0.7819" style="stop-color:#E4C11B"/>
	</linearGradient>
	<path class="st3" d="M550.3,432.6c8.5-5.1,11.1-15.3,6-23.8s-15.3-11.1-23.8-6c-3.4,1.7-34.1,21.3-36.6,52.8
		c-1.7,21.3,9.4,40.9,31.5,59.6c3.4,2.6,6.8,4.3,11.1,4.3c5.1,0,10.2-2.6,13.6-6c6-7.7,5.1-17.9-2.6-23.8
		c-9.4-7.7-19.6-18.7-19.6-30.7C531.5,447,545.2,436,550.3,432.6z"/>
	<linearGradient id="SVGID_4_" gradientUnits="userSpaceOnUse" x1="686.9953" y1="830.3216" x2="686.9953" y2="62.3342">
		<stop  offset="1.063830e-02" style="stop-color:#58BFC9"/>
		<stop  offset="0.7819" style="stop-color:#E4C11B"/>
	</linearGradient>
	<path class="st4" d="M682.3,403.6c-8.5-5.1-18.7-2.6-23.8,6s-2.6,18.7,6,23.8c5.1,3.4,18.7,13.6,19.6,26.4
		c0.9,11.1-10.2,23-19.6,30.7c-7.7,6-8.5,17-2.6,23.8c3.4,4.3,8.5,6,13.6,6c3.4,0,7.7-0.9,11.1-4.3c23-18.7,33.2-38.3,31.5-59.6
		C716.3,424.1,685.7,405.3,682.3,403.6z"/>
	<linearGradient id="SVGID_5_" gradientUnits="userSpaceOnUse" x1="606.5583" y1="830.3216" x2="606.5583" y2="62.3342">
		<stop  offset="1.063830e-02" style="stop-color:#58BFC9"/>
		<stop  offset="0.7819" style="stop-color:#E4C11B"/>
	</linearGradient>
	<path class="st5" d="M883.2,587.5c-0.9-9.4-9.4-16.2-18.7-17.9c6.8-12.8,11.1-27.2,11.1-42.6c0-36.6-20.4-68.1-51.9-83.4
		c-6.8-53.6-50.2-95.4-102.2-97.1c-24.7-37.5-75.8-51.1-114.1-30.7c-39.2-20.4-90.3-6.8-114.1,30.7c-51.9,1.7-96.2,44.3-102.2,97.1
		c-31.5,15.3-51.9,46.8-51.9,83.4c0,15.3,4.3,28.9,11.1,42.6c-9.4,1.7-17.9,8.5-20.4,17.9c-10.2,48.5-7.7,100.5,13.6,155.8
		c37.5,94.5,123.5,166,223.9,179.7C741,946.8,889.2,812.3,889.2,642.9C889.2,624.1,887.5,605.4,883.2,587.5z M390.2,568.8
		c-11.1-11.1-17-25.5-17-41.7c0-18.7,8.5-36.6,23-46.8c9.4,24.7,28.9,50.2,67.3,65.6c1.7,0.9,4.3,0.9,6,0.9
		c6.8,0,13.6-4.3,16.2-11.1c3.4-8.5-0.9-18.7-9.4-22.1c-28.9-11.1-46.8-32.4-51.9-60.5c2.6-40,34.1-72.4,72.4-72.4
		c0,0,4.3,0.9,5.1,0.9c6.8,0,13.6-3.4,17-9.4c13.6-27.2,46.8-39.2,72.4-26.4v223.1H390.2z M486.9,734.5c-7.8,7.8-20.4,7.8-28.2,0
		c-7.8-7.8-7.8-20.4,0-28.2l31-31l-31-31c-7.8-7.8-7.8-20.4,0-28.2c7.8-7.8,20.4-7.8,28.2,0l31,31l31-31c7.8-7.8,20.4-7.8,28.2,0
		c7.8,7.8,7.8,20.4,0,28.2l-31,31l31,31c7.8,7.8,7.8,20.4,0,28.2c-7.8,7.8-20.4,7.8-28.2,0l-31-31L486.9,734.5z M671.2,823.4
		c-9.4,3.4-23.8-2.6-23.8-2.6c-27-7.6-54-7.6-80.9,0c0,0-14.5,6-23.8,2.6c-9.4-3.4-14.5-14.5-11.1-23.8
		c11.9-31.5,41.7-51.9,74.9-51.9c33.2,0,63.9,21.3,74.9,52.8C685.7,809.8,680.6,820,671.2,823.4z M742.1,720.6c-6,6-15.6,6-21.6,0
		l-23.7-23.7L673,720.6c-6,6-15.6,6-21.6,0c-6-6-6-15.6,0-21.6l23.7-23.7l-23.7-23.7c-6-6-6-15.6,0-21.6s15.6-6,21.6,0l23.7,23.7
		l23.7-23.7c6-6,15.6-6,21.6,0c6,6,6,15.6,0,21.6l-23.7,23.7l23.7,23.7C748,704.9,748,714.6,742.1,720.6z M824.4,568.8H624.4V345.7
		c25.5-12.8,58.8-0.9,72.4,26.4c3.4,6,14.5,9.4,21.3,9.4c38.3,0,69.8,32.4,72.4,72.4c-6,28.9-23,49.4-51.9,61.3
		c-8.5,3.4-12.8,13.6-9.4,22.1c2.6,6.8,9.4,11.1,16.2,11.1c1.7,0,4.3,0,6-0.9c39.2-15.3,58.8-40.9,67.3-65.6
		c14.5,10.2,23,28.1,23,46.8C841.5,543.3,835.5,557.7,824.4,568.8z M852.8,657.4c0,11.4-9.3,20.7-20.7,20.7
		c-11.4,0-20.7-9.3-20.7-20.7c0-11.4,22.9-42.5,22.9-42.5S852.8,645.9,852.8,657.4z M826.2,768.7c-1.2,7.5-8.3,12.6-15.8,11.4
		c-7.5-1.2-12.6-8.3-11.4-15.8s19.7-25.4,19.7-25.4S827.4,761.2,826.2,768.7z"/>
	
		<linearGradient id="SVGID_6_" gradientUnits="userSpaceOnUse" x1="871.1465" y1="890.267" x2="871.1465" y2="122.2797" gradientTransform="matrix(0.9859 -0.1674 0.1674 0.9859 -83.1647 29.7531)">
		<stop  offset="1.063830e-02" style="stop-color:#58BFC9"/>
		<stop  offset="0.7819" style="stop-color:#E4C11B"/>
	</linearGradient>
	<path class="st6" d="M951.5,255.1l20.6-29.1l-118.8-60.9c-0.3-0.3-0.7-0.7-1.1-1c-1-0.7-2-1-3-1.1l-1.6-0.8l-1.1,1.5
		c-0.7,0.4-1.3,1-1.8,1.7l-54.4,76.7c-1.7-12.9-9.3-25.8-21.8-34.7c-22-15.6-50.6-12.7-64.1,6.2s-6.3,47.2,15.3,62.5
		c21.6,15.3,49.4,12.8,63.2-5c0.1-0.1,0.2-0.2,0.3-0.3l53.1-74.9l105,53.9l-36.2,51.1c-1.9-12.7-9.4-25.2-21.7-33.9
		c-22-15.6-50.6-12.7-64.1,6.2s-6.3,47.2,15.3,62.5c21.6,15.3,49.9,12.9,64.1-6.2c1.2-1.7,2.3-3.6,3.2-5.5l49.2-69.3L951.5,255.1z"
		/>
	
		<linearGradient id="SVGID_7_" gradientUnits="userSpaceOnUse" x1="501.6236" y1="907.7394" x2="501.6236" y2="139.752" gradientTransform="matrix(0.9859 -0.1674 0.1674 0.9859 -83.1647 29.7531)">
		<stop  offset="1.063830e-02" style="stop-color:#58BFC9"/>
		<stop  offset="0.7819" style="stop-color:#E4C11B"/>
	</linearGradient>
	<path class="st7" d="M519.4,78.9l0.3-0.2l-21.1-45.4l-85.3,56.1l49.3,106.7c-8.3-2.1-17.4-2.5-26.8-1c-6.5,1.1-12,3-18.2,6
		c-31.2,13.9-46.5,48.2-34.1,75.8c9.4,21.4,34.5,33.5,61.5,28.9c5.6-1,12-3,18.2-6c31.2-13.9,46.5-48.2,34.1-75.8
		c-1.6-3.7-3.7-7-6.2-10.1l-41-89.8L519.4,78.9z"/>
</g>
<text transform="matrix(1 0 0 1 73.8451 1099.3882)" class="st8 st9 st10">MultiBlindtest.com</text>
<polygon style="fill:none;" points="1316,927.7 1303.3,927.7 1303.3,927.7 1316,927.7 "/>
</svg>
