<?xml version="1.0" encoding="utf-8"?>
<!-- Generator: Adobe Illustrator 24.0.0, SVG Export Plug-In . SVG Version: 6.00 Build 0)  -->
<svg version="1.1" id="Calque_1" xmlns="http://www.w3.org/2000/svg" xmlns:xlink="http://www.w3.org/1999/xlink" x="0px" y="0px"
	 viewBox="0 0 170.5 294.1" style="enable-background:new 0 0 170.5 294.1;" xml:space="preserve">
<style type="text/css">
	.st0{fill:#FFFFFF;}
</style>
<title>NOUN_Sign</title>
<path class="st0" d="M146.5,0c-6.1,0-12,2.4-16.4,6.8L6.8,130.2c-9,9.1-9,23.7,0,32.8l123.3,123.4c8.5,9.5,23.2,10.4,32.7,1.8
	c9.5-8.5,10.4-23.2,1.8-32.7c-0.6-0.7-1.2-1.3-1.9-1.9l-85.3-85.4c-12-12-12-31.4,0-43.4l85.3-85.4c9-9.1,9-23.7-0.1-32.8
	C158.4,2.5,152.6,0,146.5,0z"/>
</svg>
