<?xml version="1.0" encoding="utf-8"?>
<!-- Generator: Adobe Illustrator 23.0.6, SVG Export Plug-In . SVG Version: 6.00 Build 0)  -->
<svg version="1.1"
	 id="Calque_1" xmlns:cc="http://creativecommons.org/ns#" xmlns:dc="http://purl.org/dc/elements/1.1/" xmlns:inkscape="http://www.inkscape.org/namespaces/inkscape" xmlns:rdf="http://www.w3.org/1999/02/22-rdf-syntax-ns#" xmlns:sodipodi="http://sodipodi.sourceforge.net/DTD/sodipodi-0.dtd" xmlns:svg="http://www.w3.org/2000/svg"
	 xmlns="http://www.w3.org/2000/svg" xmlns:xlink="http://www.w3.org/1999/xlink" x="0px" y="0px" viewBox="0 0 246 180"
	 style="enable-background:new 0 0 246 180;" xml:space="preserve">
<style type="text/css">
	.st0{fill:#A2A2A2;}
</style>
<g transform="translate(0,-952.36218)">
	<path class="st0" d="M12,952.4c-6.6,0-12,5.4-12,12s5.4,12,12,12h222c6.6,0,12-5.4,12-12s-5.4-12-12-12H12z M12,1030.4
		c-6.6,0-12,5.4-12,12c0,6.6,5.4,12,12,12h222c6.6,0,12-5.4,12-12s-5.4-12-12-12H12z M12,1108.4c-6.6,0-12,5.4-12,12s5.4,12,12,12
		h222c6.6,0,12-5.4,12-12s-5.4-12-12-12H12z"/>
</g>
</svg>
