<svg height='300px' width='300px'  fill="#ffffff" xmlns="http://www.w3.org/2000/svg" data-name="Layer 1" viewBox="0 0 100 100" x="0px" y="0px"><title>mini chat</title><path d="M85.08,12.3A51.25,51.25,0,0,0,66.6,2.39,54.79,54.79,0,0,0,53.83.1a51.29,51.29,0,0,0-6.36,0,73.94,73.94,0,0,0-8.29.9A52.24,52.24,0,0,0,22.63,7,45.3,45.3,0,0,0,5.75,22.9,36.78,36.78,0,0,0,1.11,51.61,39.87,39.87,0,0,0,14,72.49,52.24,52.24,0,0,0,42.47,85.09a4.56,4.56,0,0,1,4.28,5.1c0,1.64-.37,3.27-0.57,4.9a9.55,9.55,0,0,0-.2,3.71A1.27,1.27,0,0,0,47.41,100a12.32,12.32,0,0,0,3-.78A67.15,67.15,0,0,0,62.49,92,199.85,199.85,0,0,0,86.08,72.45,52.19,52.19,0,0,0,93,64.69a38.2,38.2,0,0,0,7-21.75,37.46,37.46,0,0,0-1.41-10.23A41.31,41.31,0,0,0,85.08,12.3ZM29.72,50.74a5.75,5.75,0,1,1,5.71-5.67A5.73,5.73,0,0,1,29.72,50.74Zm20.22,0A5.75,5.75,0,1,1,55.74,45,5.81,5.81,0,0,1,49.94,50.75Zm20.34,0A5.75,5.75,0,1,1,76,45,5.74,5.74,0,0,1,70.28,50.75Z"></path></svg>