<?xml version="1.0" encoding="UTF-8" standalone="no"?>
<!DOCTYPE svg PUBLIC "-//W3C//DTD SVG 1.1//EN" "http://www.w3.org/Graphics/SVG/1.1/DTD/svg11.dtd">
<svg width="100%" height="100%" viewBox="0 0 300 300" version="1.1" xmlns="http://www.w3.org/2000/svg" xmlns:xlink="http://www.w3.org/1999/xlink" xml:space="preserve" xmlns:serif="http://www.serif.com/" style="fill-rule:evenodd;clip-rule:evenodd;stroke-linejoin:round;stroke-miterlimit:2;">
    <path d="M35.22,45.735L231.328,241.843C217.251,253.896 202.615,265.295 187.47,276C176.182,284.469 164.035,291.729 151.23,297.66C148.34,298.816 145.317,299.602 142.23,300C142.069,300.021 141.908,300.031 141.746,300.031C139.723,300.031 138.035,298.42 137.94,296.4C137.409,292.687 137.613,288.905 138.54,285.27C139.14,280.38 140.25,275.49 140.25,270.57C140.316,270.026 140.349,269.478 140.349,268.93C140.349,261.705 134.625,255.662 127.41,255.27C95.764,251.644 65.963,238.455 42,217.47C22.848,201.177 9.313,179.252 3.33,154.83C-4.057,125.44 0.981,94.267 17.25,68.7C22.42,60.389 28.451,52.695 35.22,45.735ZM64.763,22.749C65.797,22.152 66.839,21.57 67.89,21C83.302,12.235 100.091,6.148 117.54,3C125.773,1.633 134.076,0.731 142.41,0.3C148.764,-0.095 155.136,-0.095 161.49,0.3C174.487,1.065 187.347,3.371 199.8,7.17C220.131,13.153 239.007,23.275 255.24,36.9C274.623,52.745 288.756,74.098 295.77,98.13C298.59,108.116 300.014,118.444 300,128.82C299.821,152.2 292.491,174.974 279,194.07C273.028,202.287 266.27,209.904 258.824,216.811L64.763,22.749ZM210.66,152.22C210.69,152.22 210.72,152.22 210.75,152.22C220.213,152.22 228,144.433 228,134.97C228,125.507 220.213,117.72 210.75,117.72C201.287,117.72 193.5,125.507 193.5,134.97C193.5,134.98 193.5,134.99 193.5,135C193.484,144.435 201.225,152.217 210.66,152.25L210.66,152.22ZM88.923,152.22C88.963,152.22 89.002,152.22 89.042,152.22C98.505,152.22 106.292,144.433 106.292,134.97C106.292,125.507 98.505,117.72 89.042,117.72C79.579,117.72 71.792,125.507 71.792,134.97C71.792,135.05 71.792,135.13 71.793,135.21C71.891,144.549 79.583,152.188 88.923,152.22Z" style="fill:white;fill-rule:nonzero;"/>
</svg>
