<?xml version="1.0" encoding="utf-8"?>
<!-- Generator: Adobe Illustrator 24.1.1, SVG Export Plug-In . SVG Version: 6.00 Build 0)  -->
<svg version="1.1" id="Calque_1" xmlns="http://www.w3.org/2000/svg" xmlns:xlink="http://www.w3.org/1999/xlink" x="0px" y="0px"
	 viewBox="0 0 211 174.1" style="enable-background:new 0 0 211 174.1;" xml:space="preserve">
<style type="text/css">
	.st0{fill:#FFFFFF;stroke:#FFFFFF;stroke-miterlimit:10;}
</style>
<polygon class="st0" points="117.8,38.9 117.8,93.5 140.3,110 147.2,100.4 129.8,87.5 129.8,38.9 "/>
<path class="st0" d="M97.7,52.1c0-26.7-21.9-48.6-48.6-48.6S0.5,25.4,0.5,52.1s21.9,48.6,48.6,48.6C75.8,100.4,97.7,78.8,97.7,52.1z
	 M43.1,23.9h12v36.3h-12V23.9z M47.9,81.8c-0.3,0-0.6-0.3-1.2-0.3c-0.3,0-0.6-0.3-1.2-0.6c-0.3-0.3-0.6-0.6-0.9-0.6
	C44.3,80,44,79.7,44,79.4c-0.3-0.3-0.3-0.6-0.6-0.9c-0.3-0.3-0.3-0.6-0.3-1.2c0-0.3,0-0.9,0-1.2c0-0.3,0-0.9,0-1.2
	c0-0.3,0.3-0.6,0.3-1.2c0-0.3,0.3-0.6,0.6-1.2c0.3-0.3,0.3-0.6,0.6-0.9c0.3-0.3,0.6-0.6,0.9-0.6c0.3-0.3,0.6-0.3,1.2-0.6
	c0.3,0,0.6-0.3,1.2-0.3c0.9,0,1.5,0,2.4,0c0.3,0,0.9,0.3,1.2,0.3c0.3,0.3,0.6,0.3,0.9,0.6c0.3,0.3,0.6,0.6,0.9,0.6
	c0.3,0.3,0.6,0.6,0.6,0.9c0.3,0.3,0.3,0.6,0.6,1.2c0.3,0.3,0.3,0.6,0.3,1.2c0,0.3,0,0.9,0,1.2c0,0.3,0,0.9,0,1.2
	c0,0.3-0.3,0.6-0.3,1.2c0,0.3-0.3,0.6-0.6,0.9c-0.3,0.3-0.3,0.6-0.6,0.9s-0.6,0.6-0.9,0.6c-0.3,0.3-0.6,0.3-0.9,0.6
	c-0.3,0.3-0.6,0.3-1.2,0.3c-0.3,0-0.9,0-1.2,0C48.8,82.1,48.2,82.1,47.9,81.8z"/>
<path class="st0" d="M123.8,0.5c-11.7,0-22.8,2.4-32.7,6.6c3.3,2.7,6.3,6,9,9.3c7.5-2.4,15.6-3.9,23.7-3.9
	c41.1,0,74.7,33.6,74.7,74.7s-33.6,74.4-74.7,74.4c-29.4,0-54.6-17.1-66.9-41.7c-2.4,0.3-5.1,0.6-7.8,0.6c-1.8,0-3.6,0-5.4-0.3
	c13.2,31.2,44.1,53.4,80.1,53.4c47.7,0,86.7-39,86.7-86.7S171.5,0.5,123.8,0.5z"/>
</svg>
