<?xml version="1.0" encoding="utf-8"?>
<!-- Generator: Adobe Illustrator 25.0.1, SVG Export Plug-In . SVG Version: 6.00 Build 0)  -->
<svg version="1.1" id="Calque_1" xmlns="http://www.w3.org/2000/svg" xmlns:xlink="http://www.w3.org/1999/xlink" x="0px" y="0px"
	 viewBox="0 0 61 92.1" style="enable-background:new 0 0 61 92.1;" xml:space="preserve">
<style type="text/css">
	.st0{fill:#8D24A9;}
</style>
<path class="st0" d="M14.6,23.9c-2.5,0-4.8,0-7.1,0c2.9-30.7,40.9-33,46.2-0.1c-2.4,0-4.8,0-7.4,0c-3.1-7.7-5.9-16.2-16.4-15.9
	C20.1,8.2,17.4,16.1,14.6,23.9z"/>
<path class="st0" d="M61,34.5c0-3.5-1.6-5.4-5.1-5.4c-17,0-34,0-51,0c-3.2,0-4.9,1.7-4.9,5c0,18.3,0,36.6,0,56.1
	C2,90.9,3.7,92,5.5,92c16.7,0.1,33.3,0.1,50,0.1c3.5,0,5.6-1.8,5.5-5.6C61,69.2,61,51.8,61,34.5z M38.2,74.9H22.8l2.8-15.3
	c-1.9-1.5-3.2-3.8-3.2-6.5c0-4.5,3.6-8.1,8.1-8.1c4.5,0,8.1,3.6,8.1,8.1c0,2.6-1.3,5-3.2,6.5L38.2,74.9z"/>
</svg>
