<?xml version="1.0" encoding="utf-8"?>
<!-- Generator: Adobe Illustrator 24.1.1, SVG Export Plug-In . SVG Version: 6.00 Build 0)  -->
<svg version="1.1"
	 id="Calque_1" xmlns:cc="http://creativecommons.org/ns#" xmlns:dc="http://purl.org/dc/elements/1.1/" xmlns:rdf="http://www.w3.org/1999/02/22-rdf-syntax-ns#"
	 xmlns="http://www.w3.org/2000/svg" xmlns:xlink="http://www.w3.org/1999/xlink" x="0px" y="0px" viewBox="0 0 276.5 263"
	 style="enable-background:new 0 0 276.5 263;" xml:space="preserve">
<style type="text/css">
	.st0{fill:#FFFFFF;}
</style>
<path class="st0" d="M191,163.3l85.4-62.8l-104.8,0.1L138.3,0l0,0L106,99.7L0,100.3l84.9,61.5l-32.2,101l84.7-61.7l86.1,61.8
	l-3.6-10.9L191,163.3z M137.4,191.9l-70.6,51.4l26.9-84.4L23,107.7l88.5-0.5l26.9-83.1l0,0l0,0l0,0l27.8,84.1l87.3-0.1l-71.4,52.5
	l27.1,83L137.4,191.9z"/>
<polygon class="st0" points="138.3,61.6 119.7,119 58.6,119.3 107.5,154.7 88.9,213 137.7,177.4 187.3,213.1 168.6,155.7 
	217.8,119.5 157.5,119.6 138.3,61.6 "/>
</svg>
