<?xml version="1.0" encoding="utf-8"?>
<!-- Generator: Adobe Illustrator 25.0.1, SVG Export Plug-In . SVG Version: 6.00 Build 0)  -->
<svg version="1.1" id="Calque_1" xmlns="http://www.w3.org/2000/svg" xmlns:xlink="http://www.w3.org/1999/xlink" x="0px" y="0px"
	 viewBox="0 0 186.7 186.7" style="enable-background:new 0 0 186.7 186.7;" xml:space="preserve">
<style type="text/css">
	.st0{fill:#FFFFFF;}
</style>
<path class="st0" d="M169.3,123.8v25.9c0,20.4-16.6,37-37,37H37c-20.4,0-37-16.6-37-37V54.4c0-20.4,16.6-37,37-37h25.9
	c3.6,0,6.5,2.9,6.5,6.5s-2.9,6.5-6.5,6.5H37c-13.1,0-23.9,10.8-23.9,23.9v95.3c0,13.1,10.8,23.9,23.9,23.9h95.3
	c13.1,0,23.9-10.8,23.9-23.9v-25.9l0,0c0-3.6,2.9-6.5,6.5-6.5C166.3,117.3,169.3,120.2,169.3,123.8z M186.7,6.5l-1.9-4.6L180.1,0
	h-52.5c-3.6,0-6.5,2.9-6.5,6.5s2.9,6.5,6.5,6.5h36.7L99.8,77.6c-2.5,2.5-2.5,6.7,0,9.2s6.7,2.5,9.2,0l64.6-64.6V59
	c0,3.6,2.9,6.5,6.5,6.5s6.5-2.9,6.5-6.5L186.7,6.5z"/>
</svg>
