<?xml version="1.0" encoding="utf-8"?>
<!-- Generator: Adobe Illustrator 25.0.1, SVG Export Plug-In . SVG Version: 6.00 Build 0)  -->
<svg version="1.1" id="Calque_1" xmlns="http://www.w3.org/2000/svg" xmlns:xlink="http://www.w3.org/1999/xlink" x="0px" y="0px"
	 viewBox="0 0 290.5 242.3" style="enable-background:new 0 0 290.5 242.3;" xml:space="preserve">
<style type="text/css">
	.st0{fill:#FFFFFF;}
</style>
<path class="st0" d="M4,131c10.5,82.8,68.4,110.7,74.4,110.4c9.3-0.3-2.1-0.6,68.1,0.9c64.8,1.5,92.7-67.8,96.6-78.3
	c0.3-0.9,1.2-2.7,1.5-3c24.3-12.9,45.9-32.4,45.9-61.8c0-35.4-28.2-63.9-62.7-63.9c-34.5,0-62.7,28.5-62.7,63.9l0,0
	c-2.4-0.3-5.1-0.6-7.5-0.6c-32.7,0-59.4,26.4-62.4,60.6c0,0.9-0.9,0.6-0.9-0.3c-4.5-32.1-40.8-62.1-45.6-69c-4.8-6.9-9-21.3-10.8-27
	c0,0,1.2-7.8,7.5-8.7c6.3-0.6,12.6,6,18,5.1c6.9-0.9,10.2-6.9,14.4-11.4c2.7-3,5.4-3.6,6.9-7.5c4.5-11.7,2.1-23.7-29.4-38.7
	C35.5-7.6,3.4,23.9,1.6,48.8C-0.5,75.2-1.4,88.1,4,131z"/>
</svg>
