<?xml version="1.0" encoding="utf-8"?>
<!-- Generator: Adobe Illustrator 25.0.1, SVG Export Plug-In . SVG Version: 6.00 Build 0)  -->
<svg version="1.1" id="Calque_1" xmlns="http://www.w3.org/2000/svg" xmlns:xlink="http://www.w3.org/1999/xlink" x="0px" y="0px"
	 viewBox="0 0 290.5 242.3" style="enable-background:new 0 0 290.5 242.3;" xml:space="preserve">
<style type="text/css">
	.st0{fill:#FFFFFF;}
</style>
<path class="st0" d="M288.9,48.8C287.1,23.9,255-7.6,235.2,1.7c-31.5,15-33.9,27-29.4,38.7c1.5,3.9,4.2,4.5,6.9,7.5
	c4.2,4.5,7.5,10.5,14.4,11.4c5.4,0.9,11.7-5.7,18-5.1c6.3,0.9,7.5,8.7,7.5,8.7c-1.8,5.7-6,20.1-10.8,27c-4.8,6.9-41.1,36.9-45.6,69
	c0,0.9-0.9,1.2-0.9,0.3c-3-34.2-29.7-60.6-62.4-60.6c-2.4,0-5.1,0.3-7.5,0.6l0,0c0-35.4-28.2-63.9-62.7-63.9
	C28.2,35.3,0,63.8,0,99.2c0,29.4,21.6,48.9,45.9,61.8c0.3,0.3,1.2,2.1,1.5,3c3.9,10.5,31.8,79.8,96.6,78.3
	c70.2-1.5,58.8-1.2,68.1-0.9c6,0.3,63.9-27.6,74.4-110.4C291.9,88.1,291,75.2,288.9,48.8z"/>
</svg>
