<?xml version="1.0" encoding="utf-8"?>
<!-- Generator: Adobe Illustrator 25.0.1, SVG Export Plug-In . SVG Version: 6.00 Build 0)  -->
<svg version="1.1" id="Calque_1" xmlns="http://www.w3.org/2000/svg" xmlns:xlink="http://www.w3.org/1999/xlink" x="0px" y="0px"
	 viewBox="0 0 277.2 277.2" style="enable-background:new 0 0 277.2 277.2;" xml:space="preserve">
<style type="text/css">
	.st0{fill:#FFFFFF;}
</style>
<path class="st0" d="M277.2,161.6v-45.9h-25.1c-22.6,0-32.7-25.3-17-41l17.8-17.8l-32.5-32.5l-17.8,17.8c-15.5,15.5-41,3.6-41-17V0
	h-45.9v25.2c0,19.8-26.5,31.5-41,17L56.9,24.3L24.4,56.8l17.8,17.8c15.5,15.5,4.8,41-17,41H0v45.9h25.2c23.4,0,34.9,23.1,17,41
	l-17.9,17.9l32.5,32.5L74.6,235c14.5-14.5,41-4.4,41,17v25.2h45.9l0-25.2c0-22.2,23.9-34.1,41-17l17.8,17.8l32.5-32.5L235,202.6
	c-16.1-16.1-7.2-41,17-41L277.2,161.6L277.2,161.6z M138.6,193.6c-30.4,0-55-24.6-55-55c0-30.4,24.6-55,55-55c30.4,0,55,24.6,55,55
	C193.6,169,169,193.6,138.6,193.6z"/>
</svg>
