<?xml version="1.0" encoding="utf-8"?>
<!-- Generator: Adobe Illustrator 25.0.1, SVG Export Plug-In . SVG Version: 6.00 Build 0)  -->
<svg version="1.1" id="Calque_1" xmlns="http://www.w3.org/2000/svg" xmlns:xlink="http://www.w3.org/1999/xlink" x="0px" y="0px"
	 viewBox="0 0 287.1 339.3" style="enable-background:new 0 0 287.1 339.3;" xml:space="preserve">
<style type="text/css">
	.st0{fill:#FFFFFF;}
	.st1{fill:url(#SVGID_1_);}
	.st2{fill:url(#SVGID_2_);}
	.st3{fill:url(#SVGID_3_);}
	.st4{fill:url(#SVGID_4_);}
	.st5{fill:url(#SVGID_5_);}
	.st6{fill:url(#SVGID_6_);}
	.st7{fill:url(#SVGID_7_);}
</style>
<g>
	<path class="st0" d="M45.9,157.1C45.9,157.1,45.9,157.1,45.9,157.1c4,0,7.8-2.2,9.9-5.6c2.2-3.6,2.3-8,0.3-11.7l-0.1-0.2l-6.2-10.3
		c2.4-2.2,3.7-5.2,3.8-8.5c0.1-3.7-1.6-7.2-4.5-9.6l-0.5-0.4L18,91.7c-1.9-1.2-4.1-1.9-6.3-1.9c-4.1,0-8,2.3-10.1,5.9
		c-2.1,3.6-2.1,8-0.1,11.6l6.2,10.3c-2.4,2.2-3.7,5.2-3.8,8.5c-0.1,3.7,1.6,7.2,4.5,9.6l0.5,0.4l30.4,19
		C41.2,156.3,43.5,157.1,45.9,157.1z"/>
	<path class="st0" d="M235.8,52.6c-0.2-0.1-0.4-0.3-0.6-0.4c-0.8-0.5-1.7-0.9-2.6-1.2l-6.9-3.5l-4.7,5.9c-0.8,0.7-1.5,1.6-2.1,2.5
		l-10,14c-0.8-0.7-1.7-1.4-2.7-2.1c-5-3.5-10.7-5.4-16.6-5.4c-6.4,0-12.2,2.2-16.6,6.2l2.5-7.7c1.1-3.6,0.5-7.4-1.7-10.3
		c-2.1-2.8-5.4-4.6-8.9-4.7l-2-11.6c-0.9-5.7-5.8-9.8-11.6-9.8c-5,0-9.4,3.2-11.1,7.8l0,0.1l-10.9,34.1c-1.2,3.4-0.7,7.1,1.4,10.1
		c2.1,3.1,5.5,5,9.1,5.2l2,11.6c0.6,3.9,3.1,7,6.5,8.7c-1.6,0.4-3.1,0.8-4.6,1.4c-4.4-1.6-9.1-2.4-13.8-2.4
		c-6.4,0-12.6,1.5-18.2,4.2c1.1-1.8,2.1-3.7,2.9-5.7c2.7-7.2,2.6-14.9-0.5-21.8c-0.8-1.7-1.7-3.2-2.6-4.6l-10.4-22.8l24.4-16
		L109.6,0L62.7,31L77.5,63c-1.8,0.6-3.3,1.2-4.6,1.8c-8.1,3.6-14.5,10.3-17.5,18.3c-2.7,7.2-2.6,14.9,0.4,21.6
		c4.3,9.9,14.5,16.3,26.3,16.4c-11.7,6.6-20.6,18.1-23.7,31.9c-12,7.8-19.2,21.1-19.2,35.7c0,3.7,0.5,7.2,1.5,10.8
		c-2.1,2.2-3.7,4.9-4.5,7.8l-0.1,0.3l-0.1,0.3c-4.2,20.1-2.5,40.5,5.3,60.6l0,0.1c14.7,37.1,48.8,64.4,86.8,69.5
		c5.1,0.7,10.3,1.1,15.4,1.1c0,0,0,0,0,0c29.2,0,56.7-11.4,77.3-32.1c20.6-20.7,32-48.2,32-77.5c0-7.7-0.8-14.8-2.2-21.3
		c-0.5-3.2-1.9-6.1-4.1-8.5c1-3.6,1.5-7.3,1.5-11c0-14.7-7.3-28-19.3-35.8c-4.6-19.5-20.6-34.6-39.7-37.4c-0.9-1.1-1.9-2.1-2.9-3
		c2.5,0.7,5.1,1.1,7.8,1.1c4.4,0,8.6-1.1,12.2-3.1c0,0.1,0,0.3,0.1,0.4c1.2,7.2,5.5,13.9,11.7,18.3c4.9,3.5,10.6,5.4,16.5,5.4
		c8,0,15.3-3.5,19.9-9.7l0.2-0.2l0.1-0.2c0.5-0.7,0.9-1.4,1.3-2.2l11.9-16.8l0.2,0.1L287.1,79L235.8,52.6z M159.7,165.2
		c0.1,0.1,0.3,0.2,0.4,0.4c-0.1,0.1-0.3,0.3-0.4,0.5V165.2z M159.7,136.1v-2.7c1.1,0.3,2.2,0.8,3.2,1.5
		C161.8,135.1,160.7,135.6,159.7,136.1z M128,166.4c-0.3-0.3-0.6-0.6-0.8-0.9c0.3-0.3,0.5-0.5,0.8-0.8V166.4z M128,135.9
		c-1-0.5-2-0.9-3-1.2c0.9-0.6,1.9-1.1,3-1.3V135.9z M89.3,162.1c0.8-6.6,5-12,10.5-14c-2.7,4-4.9,9-5.4,14.7c-0.2,2.9,0,5.7,0.6,8.4
		C92.1,168.9,90.2,165.8,89.3,162.1z M110.7,193.5C110.8,193.5,110.8,193.5,110.7,193.5L110.7,193.5
		C110.7,193.5,110.7,193.5,110.7,193.5z M143.5,280.3c-4.3,0-8.6,0.5-12.8,1.4c3.3-3.2,7.8-5.1,12.7-5.1c4.7,0,9.2,1.9,12.5,5
		C151.8,280.7,147.6,280.3,143.5,280.3z M198.1,162.3c-1.1,4.1-3,7.2-6.1,9.6c0.6-2.8,0.9-5.7,0.6-8.7c-0.3-5.8-2.4-10.8-5.1-14.8
		C193,150.4,197.2,155.8,198.1,162.3z M160.1,101.1c2-1.4,3.5-3.4,4.4-5.7l0-0.1l1.4-4.5c0.9,4.7,3.2,9.3,6.6,13.2
		C168.6,102.4,164.4,101.4,160.1,101.1z"/>
</g>
<linearGradient id="SVGID_1_" gradientUnits="userSpaceOnUse" x1="163.1027" y1="34.753" x2="163.1027" y2="305.3449" gradientTransform="matrix(0.9859 -0.1674 -0.1674 -0.9859 34.5597 344.1824)">
	<stop  offset="1.063830e-02" style="stop-color:#58BFC9"/>
	<stop  offset="0.7819" style="stop-color:#E4C11B"/>
</linearGradient>
<path class="st1" d="M140.7,71.8l7.4-1.3l3.6,21.3c0.3,1.8,2.8,2,3.4,0.3L166,58c0.4-1.3-0.7-2.3-1.9-2.1l-7.4,1.3l-3.6-21.3
	c-0.3-1.8-2.8-2-3.4-0.3l-10.9,34.1C138.4,70.7,139.5,72,140.7,71.8z"/>
<linearGradient id="SVGID_2_" gradientUnits="userSpaceOnUse" x1="31.1794" y1="28.6266" x2="31.1794" y2="299.2185" gradientTransform="matrix(0.9859 -0.1674 -0.1674 -0.9859 34.5597 344.1824)">
	<stop  offset="1.063830e-02" style="stop-color:#58BFC9"/>
	<stop  offset="0.7819" style="stop-color:#E4C11B"/>
</linearGradient>
<path class="st2" d="M47.2,144.4l-11.1-18.5l6.6-3.9c1.1-0.8,1.1-2.3,0.1-3.1l-30.2-18.8c-1.4-1-3.2,0.8-2.4,2.2l11.1,18.5l-6.6,3.9
	c-1.1,0.8-1.1,2.3-0.1,3.1l30.3,18.9C46.3,147.9,48.1,146.1,47.2,144.4z"/>
<linearGradient id="SVGID_3_" gradientUnits="userSpaceOnUse" x1="115.4688" y1="47.9858" x2="115.4688" y2="318.5777" gradientTransform="matrix(1 0 0 -1 0 343.5704)">
	<stop  offset="1.063830e-02" style="stop-color:#58BFC9"/>
	<stop  offset="0.7819" style="stop-color:#E4C11B"/>
</linearGradient>
<path class="st3" d="M123.6,155.5c3-1.8,3.9-5.4,2.1-8.4s-5.4-3.9-8.4-2.1c-1.2,0.6-12,7.5-12.9,18.6c-0.6,7.5,3.3,14.4,11.1,21
	c1.2,0.9,2.4,1.5,3.9,1.5c1.8,0,3.6-0.9,4.8-2.1c2.1-2.7,1.8-6.3-0.9-8.4c-3.3-2.7-6.9-6.6-6.9-10.8
	C117,160.6,121.8,156.7,123.6,155.5z"/>
<linearGradient id="SVGID_4_" gradientUnits="userSpaceOnUse" x1="171.7574" y1="47.9858" x2="171.7574" y2="318.5777" gradientTransform="matrix(1 0 0 -1 0 343.5704)">
	<stop  offset="1.063830e-02" style="stop-color:#58BFC9"/>
	<stop  offset="0.7819" style="stop-color:#E4C11B"/>
</linearGradient>
<path class="st4" d="M170.1,145.3c-3-1.8-6.6-0.9-8.4,2.1c-1.8,3-0.9,6.6,2.1,8.4c1.8,1.2,6.6,4.8,6.9,9.3c0.3,3.9-3.6,8.1-6.9,10.8
	c-2.7,2.1-3,6-0.9,8.4c1.2,1.5,3,2.1,4.8,2.1c1.2,0,2.7-0.3,3.9-1.5c8.1-6.6,11.7-13.5,11.1-21C182.1,152.5,171.3,145.9,170.1,145.3
	z"/>
<linearGradient id="SVGID_5_" gradientUnits="userSpaceOnUse" x1="143.4163" y1="47.9858" x2="143.4163" y2="318.5777" gradientTransform="matrix(1 0 0 -1 0 343.5704)">
	<stop  offset="1.063830e-02" style="stop-color:#58BFC9"/>
	<stop  offset="0.7819" style="stop-color:#E4C11B"/>
</linearGradient>
<path class="st5" d="M240.9,210.1c-0.3-3.3-3.3-5.7-6.6-6.3c2.4-4.5,3.9-9.6,3.9-15c0-12.9-7.2-24-18.3-29.4
	c-2.4-18.9-17.7-33.6-36-34.2c-8.7-13.2-26.7-18-40.2-10.8c-13.8-7.2-31.8-2.4-40.2,10.8c-18.3,0.6-33.9,15.6-36,34.2
	c-11.1,5.4-18.3,16.5-18.3,29.4c0,5.4,1.5,10.2,3.9,15c-3.3,0.6-6.3,3-7.2,6.3c-3.6,17.1-2.7,35.4,4.8,54.9
	c13.2,33.3,43.5,58.5,78.9,63.3c61.2,8.4,113.4-39,113.4-98.7C243,223,242.4,216.4,240.9,210.1z M67.2,203.5c-3.9-3.9-6-9-6-14.7
	c0-6.6,3-12.9,8.1-16.5C72.6,181,79.5,190,93,195.4c0.6,0.3,1.5,0.3,2.1,0.3c2.4,0,4.8-1.5,5.7-3.9c1.2-3-0.3-6.6-3.3-7.8
	c-10.2-3.9-16.5-11.4-18.3-21.3c0.9-14.1,12-25.5,25.5-25.5c0,0,1.5,0.3,1.8,0.3c2.4,0,4.8-1.2,6-3.3c4.8-9.6,16.5-13.8,25.5-9.3
	v78.6L67.2,203.5L67.2,203.5z M101.3,261.8c-2.7,2.7-7.2,2.7-10,0c-2.7-2.7-2.7-7.2,0-10l10.9-10.9L91.3,230c-2.7-2.7-2.7-7.2,0-10
	c2.7-2.7,7.2-2.7,10,0l10.9,10.9l10.9-10.9c2.7-2.7,7.2-2.7,10,0c2.7,2.7,2.7,7.2,0,10l-10.9,10.9l10.9,10.9c2.7,2.7,2.7,7.2,0,10
	c-2.7,2.7-7.2,2.7-10,0l-10.9-10.9L101.3,261.8z M166.2,293.2c-3.3,1.2-8.4-0.9-8.4-0.9c-9.5-2.7-19-2.7-28.5,0c0,0-5.1,2.1-8.4,0.9
	s-5.1-5.1-3.9-8.4c4.2-11.1,14.7-18.3,26.4-18.3s22.5,7.5,26.4,18.6C171.3,288.4,169.5,292,166.2,293.2z M191.2,256.9
	c-2.1,2.1-5.5,2.1-7.6,0l-8.4-8.4l-8.4,8.4c-2.1,2.1-5.5,2.1-7.6,0s-2.1-5.5,0-7.6l8.4-8.4l-8.4-8.4c-2.1-2.1-2.1-5.5,0-7.6
	s5.5-2.1,7.6,0l8.4,8.4l8.4-8.4c2.1-2.1,5.5-2.1,7.6,0s2.1,5.5,0,7.6l-8.4,8.4l8.4,8.4C193.3,251.4,193.3,254.8,191.2,256.9z
	 M220.2,203.5h-70.5v-78.6c9-4.5,20.7-0.3,25.5,9.3c1.2,2.1,5.1,3.3,7.5,3.3c13.5,0,24.6,11.4,25.5,25.5
	c-2.1,10.2-8.1,17.4-18.3,21.6c-3,1.2-4.5,4.8-3.3,7.8c0.9,2.4,3.3,3.9,5.7,3.9c0.6,0,1.5,0,2.1-0.3c13.8-5.4,20.7-14.4,23.7-23.1
	c5.1,3.6,8.1,9.9,8.1,16.5C226.2,194.5,224.1,199.6,220.2,203.5z M230.2,234.7c0,4-3.3,7.3-7.3,7.3s-7.3-3.3-7.3-7.3s8.1-15,8.1-15
	S230.2,230.6,230.2,234.7z M220.8,273.9c-0.4,2.6-2.9,4.4-5.6,4s-4.4-2.9-4-5.6c0.4-2.6,6.9-9,6.9-9S221.3,271.2,220.8,273.9z"/>
<linearGradient id="SVGID_6_" gradientUnits="userSpaceOnUse" x1="230.0687" y1="34.7828" x2="230.0687" y2="305.3747" gradientTransform="matrix(0.9859 -0.1674 -0.1674 -0.9859 34.5597 344.1824)">
	<stop  offset="1.063830e-02" style="stop-color:#58BFC9"/>
	<stop  offset="0.7819" style="stop-color:#E4C11B"/>
</linearGradient>
<path class="st6" d="M265,92.9l7.3-10.3l-41.9-21.5c-0.1-0.1-0.2-0.2-0.4-0.3c-0.3-0.2-0.7-0.4-1-0.4l-0.6-0.3l-0.4,0.5
	c-0.2,0.1-0.5,0.3-0.6,0.6l-19.2,27c-0.6-4.6-3.3-9.1-7.7-12.2c-7.8-5.5-17.8-4.5-22.6,2.2c-4.7,6.7-2.2,16.6,5.4,22
	c7.6,5.4,17.4,4.5,22.3-1.8l0.1-0.1l18.7-26.4l37,19l-12.8,18c-0.7-4.5-3.3-8.9-7.6-11.9c-7.8-5.5-17.8-4.5-22.6,2.2
	s-2.2,16.6,5.4,22c7.6,5.4,17.6,4.5,22.6-2.2c0.4-0.6,0.8-1.3,1.1-1.9l17.3-24.3L265,92.9z"/>
<linearGradient id="SVGID_7_" gradientUnits="userSpaceOnUse" x1="99.84" y1="28.6266" x2="99.84" y2="299.2185" gradientTransform="matrix(0.9859 -0.1674 -0.1674 -0.9859 34.5597 344.1824)">
	<stop  offset="1.063830e-02" style="stop-color:#58BFC9"/>
	<stop  offset="0.7819" style="stop-color:#E4C11B"/>
</linearGradient>
<path class="st7" d="M112.7,30.8L112.7,30.8l-7.3-16l-30,19.8l17.4,37.6c-2.9-0.7-6.1-0.9-9.4-0.3C81.1,72.3,79.2,73,77,74
	c-11,4.9-16.4,17-12,26.7c3.2,7.5,12,11.7,21.5,10.1c2-0.3,4.2-1.1,6.4-2.1c11-4.9,16.4-17,12-26.7c-0.6-1.3-1.3-2.5-2.2-3.6
	L88.3,46.8L112.7,30.8z"/>
</svg>
