<?xml version="1.0" encoding="utf-8"?>
<!-- Generator: Adobe Illustrator 24.3.0, SVG Export Plug-In . SVG Version: 6.00 Build 0)  -->
<svg version="1.1" id="Calque_1" xmlns="http://www.w3.org/2000/svg" xmlns:xlink="http://www.w3.org/1999/xlink" x="0px" y="0px"
	 viewBox="0 0 262.3 314.4" style="enable-background:new 0 0 262.3 314.4;" xml:space="preserve">
<style type="text/css">
	.st0{fill:url(#SVGID_1_);}
	.st1{fill:url(#SVGID_2_);}
	.st2{fill:url(#SVGID_3_);}
	.st3{fill:url(#SVGID_4_);}
	.st4{fill:url(#SVGID_5_);}
	.st5{fill:url(#SVGID_6_);}
	.st6{fill:url(#SVGID_7_);}
</style>
<linearGradient id="SVGID_1_" gradientUnits="userSpaceOnUse" x1="171.4799" y1="274.673" x2="171.4799" y2="4.0811" gradientTransform="matrix(0.9859 -0.1674 0.1674 0.9859 -35.444 25.7295)">
	<stop  offset="1.063830e-02" style="stop-color:#58BFC9"/>
	<stop  offset="0.7819" style="stop-color:#E4C11B"/>
</linearGradient>
<path class="st0" d="M130.7,57l7.4-1.3l3.6,21.3c0.3,1.8,2.8,2,3.4,0.3l10.9-34.1c0.4-1.3-0.7-2.3-1.9-2.1l-7.4,1.3l-3.6-21.3
	c-0.3-1.8-2.8-2-3.4-0.3l-10.9,34.1C128.4,55.9,129.5,57.2,130.7,57z"/>
<linearGradient id="SVGID_2_" gradientUnits="userSpaceOnUse" x1="39.5145" y1="280.7994" x2="39.5145" y2="10.2075" gradientTransform="matrix(0.9859 -0.1674 0.1674 0.9859 -35.444 25.7295)">
	<stop  offset="1.063830e-02" style="stop-color:#58BFC9"/>
	<stop  offset="0.7819" style="stop-color:#E4C11B"/>
</linearGradient>
<path class="st1" d="M37.2,129.6l-11.1-18.5l6.6-3.9c1.1-0.8,1.1-2.3,0.1-3.1L2.6,85.3c-1.4-1-3.2,0.8-2.4,2.2L11.3,106l-6.6,3.9
	c-1.1,0.8-1.1,2.3-0.1,3.1l30.3,18.9C36.3,133.1,38.1,131.3,37.2,129.6z"/>
<linearGradient id="SVGID_3_" gradientUnits="userSpaceOnUse" x1="105.4962" y1="280.7994" x2="105.4962" y2="10.2075">
	<stop  offset="1.063830e-02" style="stop-color:#58BFC9"/>
	<stop  offset="0.7819" style="stop-color:#E4C11B"/>
</linearGradient>
<path class="st2" d="M113.6,140.7c3-1.8,3.9-5.4,2.1-8.4s-5.4-3.9-8.4-2.1c-1.2,0.6-12,7.5-12.9,18.6c-0.6,7.5,3.3,14.4,11.1,21
	c1.2,0.9,2.4,1.5,3.9,1.5c1.8,0,3.6-0.9,4.8-2.1c2.1-2.7,1.8-6.3-0.9-8.4c-3.3-2.7-6.9-6.6-6.9-10.8
	C107,145.8,111.8,141.9,113.6,140.7z"/>
<linearGradient id="SVGID_4_" gradientUnits="userSpaceOnUse" x1="161.7848" y1="280.7994" x2="161.7848" y2="10.2075">
	<stop  offset="1.063830e-02" style="stop-color:#58BFC9"/>
	<stop  offset="0.7819" style="stop-color:#E4C11B"/>
</linearGradient>
<path class="st3" d="M160.1,130.5c-3-1.8-6.6-0.9-8.4,2.1c-1.8,3-0.9,6.6,2.1,8.4c1.8,1.2,6.6,4.8,6.9,9.3c0.3,3.9-3.6,8.1-6.9,10.8
	c-2.7,2.1-3,6-0.9,8.4c1.2,1.5,3,2.1,4.8,2.1c1.2,0,2.7-0.3,3.9-1.5c8.1-6.6,11.7-13.5,11.1-21C172.1,137.7,161.3,131.1,160.1,130.5
	z"/>
<linearGradient id="SVGID_5_" gradientUnits="userSpaceOnUse" x1="133.4437" y1="280.7994" x2="133.4437" y2="10.2075">
	<stop  offset="1.063830e-02" style="stop-color:#58BFC9"/>
	<stop  offset="0.7819" style="stop-color:#E4C11B"/>
</linearGradient>
<path class="st4" d="M230.9,195.3c-0.3-3.3-3.3-5.7-6.6-6.3c2.4-4.5,3.9-9.6,3.9-15c0-12.9-7.2-24-18.3-29.4
	c-2.4-18.9-17.7-33.6-36-34.2c-8.7-13.2-26.7-18-40.2-10.8c-13.8-7.2-31.8-2.4-40.2,10.8c-18.3,0.6-33.9,15.6-36,34.2
	C46.4,150,39.2,161.1,39.2,174c0,5.4,1.5,10.2,3.9,15c-3.3,0.6-6.3,3-7.2,6.3c-3.6,17.1-2.7,35.4,4.8,54.9
	c13.2,33.3,43.5,58.5,78.9,63.3c61.2,8.4,113.4-39,113.4-98.7C233,208.2,232.4,201.6,230.9,195.3z M57.2,188.7c-3.9-3.9-6-9-6-14.7
	c0-6.6,3-12.9,8.1-16.5c3.3,8.7,10.2,17.7,23.7,23.1c0.6,0.3,1.5,0.3,2.1,0.3c2.4,0,4.8-1.5,5.7-3.9c1.2-3-0.3-6.6-3.3-7.8
	c-10.2-3.9-16.5-11.4-18.3-21.3c0.9-14.1,12-25.5,25.5-25.5c0,0,1.5,0.3,1.8,0.3c2.4,0,4.8-1.2,6-3.3c4.8-9.6,16.5-13.8,25.5-9.3
	v78.6H57.2z M91.3,247c-2.7,2.7-7.2,2.7-10,0c-2.7-2.7-2.7-7.2,0-10l10.9-10.9l-10.9-10.9c-2.7-2.7-2.7-7.2,0-10
	c2.7-2.7,7.2-2.7,10,0l10.9,10.9l10.9-10.9c2.7-2.7,7.2-2.7,10,0c2.7,2.7,2.7,7.2,0,10l-10.9,10.9l10.9,10.9c2.7,2.7,2.7,7.2,0,10
	c-2.7,2.7-7.2,2.7-10,0l-10.9-10.9L91.3,247z M156.2,278.4c-3.3,1.2-8.4-0.9-8.4-0.9c-9.5-2.7-19-2.7-28.5,0c0,0-5.1,2.1-8.4,0.9
	c-3.3-1.2-5.1-5.1-3.9-8.4c4.2-11.1,14.7-18.3,26.4-18.3c11.7,0,22.5,7.5,26.4,18.6C161.3,273.6,159.5,277.2,156.2,278.4z
	 M181.2,242.1c-2.1,2.1-5.5,2.1-7.6,0l-8.4-8.4l-8.4,8.4c-2.1,2.1-5.5,2.1-7.6,0c-2.1-2.1-2.1-5.5,0-7.6l8.4-8.4l-8.4-8.4
	c-2.1-2.1-2.1-5.5,0-7.6s5.5-2.1,7.6,0l8.4,8.4l8.4-8.4c2.1-2.1,5.5-2.1,7.6,0c2.1,2.1,2.1,5.5,0,7.6l-8.4,8.4l8.4,8.4
	C183.3,236.6,183.3,240,181.2,242.1z M210.2,188.7h-70.5v-78.6c9-4.5,20.7-0.3,25.5,9.3c1.2,2.1,5.1,3.3,7.5,3.3
	c13.5,0,24.6,11.4,25.5,25.5c-2.1,10.2-8.1,17.4-18.3,21.6c-3,1.2-4.5,4.8-3.3,7.8c0.9,2.4,3.3,3.9,5.7,3.9c0.6,0,1.5,0,2.1-0.3
	c13.8-5.4,20.7-14.4,23.7-23.1c5.1,3.6,8.1,9.9,8.1,16.5C216.2,179.7,214.1,184.8,210.2,188.7z M220.2,219.9c0,4-3.3,7.3-7.3,7.3
	s-7.3-3.3-7.3-7.3c0-4,8.1-15,8.1-15S220.2,215.8,220.2,219.9z M210.8,259.1c-0.4,2.6-2.9,4.4-5.6,4s-4.4-2.9-4-5.6
	c0.4-2.6,6.9-9,6.9-9S211.3,256.4,210.8,259.1z"/>
<linearGradient id="SVGID_6_" gradientUnits="userSpaceOnUse" x1="238.378" y1="274.6432" x2="238.378" y2="4.0513" gradientTransform="matrix(0.9859 -0.1674 0.1674 0.9859 -35.444 25.7295)">
	<stop  offset="1.063830e-02" style="stop-color:#58BFC9"/>
	<stop  offset="0.7819" style="stop-color:#E4C11B"/>
</linearGradient>
<path class="st5" d="M255,78.1l7.3-10.3l-41.9-21.5c-0.1-0.1-0.2-0.2-0.4-0.3c-0.3-0.2-0.7-0.4-1-0.4l-0.6-0.3l-0.4,0.5
	c-0.2,0.1-0.5,0.3-0.6,0.6l-19.2,27c-0.6-4.6-3.3-9.1-7.7-12.2c-7.8-5.5-17.8-4.5-22.6,2.2c-4.7,6.7-2.2,16.6,5.4,22
	c7.6,5.4,17.4,4.5,22.3-1.8c0,0,0.1-0.1,0.1-0.1l18.7-26.4l37,19l-12.8,18c-0.7-4.5-3.3-8.9-7.6-11.9c-7.8-5.5-17.8-4.5-22.6,2.2
	s-2.2,16.6,5.4,22c7.6,5.4,17.6,4.5,22.6-2.2c0.4-0.6,0.8-1.3,1.1-1.9L254.8,78L255,78.1z"/>
<linearGradient id="SVGID_7_" gradientUnits="userSpaceOnUse" x1="108.1806" y1="280.7994" x2="108.1806" y2="10.2075" gradientTransform="matrix(0.9859 -0.1674 0.1674 0.9859 -35.444 25.7295)">
	<stop  offset="1.063830e-02" style="stop-color:#58BFC9"/>
	<stop  offset="0.7819" style="stop-color:#E4C11B"/>
</linearGradient>
<path class="st6" d="M102.7,16L102.7,16L95.4,0l-30,19.8l17.4,37.6c-2.9-0.7-6.1-0.9-9.4-0.3c-2.3,0.4-4.2,1.1-6.4,2.1
	c-11,4.9-16.4,17-12,26.7C58.2,93.4,67,97.6,76.5,96c2-0.3,4.2-1.1,6.4-2.1c11-4.9,16.4-17,12-26.7c-0.6-1.3-1.3-2.5-2.2-3.6
	L78.3,32L102.7,16z"/>
</svg>
