<?xml version="1.0" encoding="utf-8"?>
<!-- Generator: Adobe Illustrator 23.0.2, SVG Export Plug-In . SVG Version: 6.00 Build 0)  -->
<svg version="1.1" id="Calque_1" xmlns="http://www.w3.org/2000/svg" xmlns:xlink="http://www.w3.org/1999/xlink" x="0px" y="0px"
	 viewBox="0 0 698.7 698.6" style="enable-background:new 0 0 698.7 698.6;" xml:space="preserve">
<style type="text/css">
	.st0{fill:#1E78C1;}
</style>
<g>
	<g>
		<path class="st0" d="M381.7,505c0-20.7,0-41.3,0-62c0-32.9,0-65.9,0-98.8c0-7.6,0-15.1,0-22.7c0-16.9-14.9-33.2-32.3-32.3
			c-17.5,0.8-32.3,14.2-32.3,32.3c0,20.7,0,41.3,0,62c0,32.9,0,65.9,0,98.8c0,7.6,0,15.1,0,22.7c0,16.9,14.9,33.2,32.3,32.3
			C366.9,536.5,381.7,523.1,381.7,505L381.7,505z"/>
	</g>
	<g>
		<path class="st0" d="M381.7,215.5c0-7.3,0-14.6,0-21.8c0-16.9-14.9-33.2-32.3-32.3c-17.5,0.8-32.3,14.2-32.3,32.3
			c0,7.3,0,14.6,0,21.8c0,16.9,14.9,33.2,32.3,32.3C366.9,247,381.7,233.6,381.7,215.5L381.7,215.5z"/>
	</g>
</g>
<path class="st0" d="M349.4,0C156.4,0,0,156.4,0,349.3s156.4,349.4,349.4,349.4s349.4-156.4,349.4-349.4S542.3,0,349.4,0z
	 M349.4,635C191.6,635,63.7,507.1,63.7,349.3S191.6,63.7,349.4,63.7S635,191.6,635,349.3S507.1,635,349.4,635z"/>
</svg>
