<?xml version="1.0" encoding="utf-8"?>
<!-- Generator: Adobe Illustrator 25.0.0, SVG Export Plug-In . SVG Version: 6.00 Build 0)  -->
<svg version="1.1" id="Calque_1" xmlns="http://www.w3.org/2000/svg" xmlns:xlink="http://www.w3.org/1999/xlink" x="0px" y="0px"
	 viewBox="0 0 419.6 395.6" style="enable-background:new 0 0 419.6 395.6;" xml:space="preserve">
<style type="text/css">
	.st0{fill:#FFFFFF;stroke:#FFFFFF;stroke-miterlimit:10;}
	.st1{fill:#FFFFFF;stroke:#FFFFFF;stroke-width:20;stroke-miterlimit:10;}
	.st2{fill:none;stroke:#FFFFFF;stroke-width:20;stroke-miterlimit:10;}
</style>
<path class="st0" d="M225,67.6c-12,1.3-38.8,19.2-49.4,24.7c-9.7,4-34.3-1.2-45.1,2.8c-10.6,5.4-16.5,18.7-25.1,21.9
	c-9.8,2.9-20.2,2.8-29.4,8.7c-12.9,10-22.3,70.1-18.3,115.7c4.9,8,21.1,15.2,33.8,17.4c1.3-35.3,4.5-72.6,10.3-103.9
	c0.5-3.1,3.2-5.7,6.4-6.1c4.6-0.6,9.1,4.2,8.2,8.8c-6,32.7-9.3,72.1-10.4,108.9c15.1,10.3,34.7,13.8,59.4,10.5
	c-1.1-37.7-0.2-88.9,3.1-121.6c0.3-3.4,3.1-6.3,6.5-6.7c4.4-0.5,8.7,3.8,8.2,8.2c-3.3,32.2-4.1,84.5-2.9,121.8
	c24.8,12.8,53.4,14.5,74.3-9.6c6-7.3,8.8-21.7,6.8-48.8c-2.8-22-9.1-46.6-13.7-66.6c-1-4.3,2.6-9,7-9.2c3.5-0.1,6.8,2.5,7.5,5.9
	c4.6,19.8,10.9,44.6,13.9,67.9v0.2v0.2c1.9,25.2,0.6,42.5-6.6,54.8c13.1,2.6,29,4.2,41.4,1.5c7.7-1.7,13.7-4.8,17.7-10
	c5.6-7.9,6.4-16.1,5.7-25c-2-22.8-13.6-75.2-18.7-89.8c-1.6-4.3,1.9-9.7,6.5-10c3.2-0.2,6.4,2,7.4,5.1c6.3,18,17.3,68,19.5,93.5
	c1.4,14.1-2.1,26.6-8.7,35.3c-6.6,8.5-16.2,13.1-26.2,15.3c-19.6,4.3-41.5,0.4-56.7-3.5c-9.4,6.2-28.6,15.5-44.3,17.8
	c-1.6,6.5-1.8,13.2-1,19.8c6.9,16.5,37.7,10.3,56.2,6.3c19,0.5,38,1.1,57,1.6c22.1-9.6,44.5-56.9,42.6-82
	c-3.8-51.6-25.2-119.2-37.4-151.3c-6.8-7.6-25.5-22.7-34.8-22.8c-9.5-1-20.2,5.6-30.7,4.6C256,79.1,235.2,68.4,225,67.6L225,67.6z"
	/>
<line class="st1" x1="91" y1="70.6" x2="67.7" y2="19.1"/>
<line class="st1" x1="157.5" y1="51" x2="144.1" y2="5.1"/>
<line class="st1" x1="228.4" y1="45.3" x2="229.1" y2="0.2"/>
<line class="st1" x1="284.2" y1="60.2" x2="298.3" y2="4.4"/>
<line class="st1" x1="348.1" y1="74.3" x2="388.3" y2="35.5"/>
<line class="st1" x1="379.5" y1="165.3" x2="414.1" y2="151.9"/>
<line class="st1" x1="376.6" y1="334.5" x2="406.3" y2="365.1"/>
<line class="st1" x1="291.2" y1="353.8" x2="294.8" y2="394"/>
<line class="st1" x1="209.4" y1="349.8" x2="208.6" y2="395.5"/>
<line class="st1" x1="134.5" y1="318.5" x2="119" y2="373.9"/>
<line class="st1" x1="78.7" y1="301.8" x2="54" y2="348.4"/>
<line class="st1" x1="42.8" y1="188.4" x2="0.2" y2="189.1"/>
<line class="st2" x1="52.6" y1="117.3" x2="13.8" y2="88.4"/>
<line class="st2" x1="38.8" y1="260.1" x2="15.5" y2="278.4"/>
<line class="st2" x1="388.5" y1="248.5" x2="418.2" y2="252.7"/>
</svg>
