<?xml version="1.0" encoding="utf-8"?>
<!-- Generator: Adobe Illustrator 24.1.1, SVG Export Plug-In . SVG Version: 6.00 Build 0)  -->
<svg version="1.1" id="Calque_1" xmlns="http://www.w3.org/2000/svg" xmlns:xlink="http://www.w3.org/1999/xlink" x="0px" y="0px"
	 viewBox="0 0 296.3 216.9" style="enable-background:new 0 0 296.3 216.9;" xml:space="preserve">
<style type="text/css">
	.st0{fill:#E6BF00;}
</style>
<g>
	<path class="st0" d="M73.4,115.8c11.5,0,21.7-5.1,28.6-13.4c6.5-7.8,12-17.1,17.1-27.2c-30,5.1-54,18-66.5,34.6c0,0,0,0,0.5,0
		C59.1,114,66,115.8,73.4,115.8z"/>
	<path class="st0" d="M223.8,115.8L223.8,115.8c7.4,0,14.3-1.8,20.3-6c0,0,0,0,0.5,0c-12.5-16.6-36.5-29.1-66.5-34.2
		c5.1,10.2,11.1,19.4,17.1,27.2C202.2,110.8,212.3,115.8,223.8,115.8z"/>
	<path class="st0" d="M278.8,48.9c-9.7,0-17.5,7.8-17.5,17.5c0,7.8,5.1,14.8,12.5,16.6c-3.7,9.7-8.3,18-14.3,25.4
		c-2.8,3.7-6.5,6.5-10.2,9.2c-19.4,12.5-46.6,9.2-61.4-9.2c-8.8-11.1-15.7-23.1-21.2-34.6c-6.9-14.8-11.5-29.1-14.3-39.2
		c7.8-1.8,13.4-8.8,13.4-17.1c0-9.7-7.8-17.5-17.5-17.5s-17.5,7.8-17.5,17.5c0,8.3,6,15.2,13.4,17.1c-2.8,10.6-7.4,24.5-14.3,39.2
		c-5.5,11.5-12.5,24-21.2,34.6c-14.8,18.9-42.5,21.7-61.4,9.7c-3.7-2.3-7.4-5.5-10.2-9.2c-6-7.4-10.6-15.7-14.3-25.4
		c7.4-2.3,12.5-8.8,12.5-16.6c0-9.7-7.8-17.5-17.5-17.5S0,57.2,0,66.9c0,9.7,7.8,17.5,17.5,17.5c0.9,0,1.4,0,1.8,0l19.4,114.5h-6.5
		v18h232.6v-18L258,198l18.9-114.5c0.5,0,1.4,0,1.8,0c9.7,0,17.5-7.8,17.5-17.5C296.3,56.8,288.5,48.9,278.8,48.9z M148.6,180.5
		c-13.4,0-24-15.7-24-35.5c0-19.4,10.6-35.5,24-35.5s24,15.7,24,35.5S162,180.5,148.6,180.5z"/>
</g>
</svg>
