<?xml version="1.0" encoding="utf-8"?>
<!-- Generator: Adobe Illustrator 24.1.1, SVG Export Plug-In . SVG Version: 6.00 Build 0)  -->
<svg version="1.1" id="Calque_1" xmlns="http://www.w3.org/2000/svg" xmlns:xlink="http://www.w3.org/1999/xlink" x="0px" y="0px"
	 viewBox="0 0 283.5 204.4" style="enable-background:new 0 0 283.5 204.4;" xml:space="preserve">
<style type="text/css">
	.st0{fill:#57BFC9;}
</style>
<g transform="translate(0,-952.36218)">
	<path class="st0" d="M141.7,952.4c-9.1,0-16.5,7.4-16.5,16.5s7.4,16.5,16.5,16.5s16.5-7.4,16.5-16.5
		C158.2,959.7,150.8,952.4,141.7,952.4z M135.3,991l-49.6,70.1l-58.6-22.4c-2.1,2.1-4.7,3.7-7.6,4.7l30,86.8H234l30-86.8
		c-2.9-1-5.5-2.6-7.6-4.7l-58.6,22.4L148.1,991c-2,0.6-4.2,0.9-6.4,0.9C139.5,991.9,137.4,991.6,135.3,991z M13.2,1011.7
		c-7.3,0-13.2,5.9-13.2,13.2c0,7.3,5.9,13.2,13.2,13.2s13.2-5.9,13.2-13.2C26.4,1017.6,20.5,1011.7,13.2,1011.7z M270.3,1011.7
		c-7.3,0-13.2,5.9-13.2,13.2c0,7.3,5.9,13.2,13.2,13.2c7.3,0,13.2-5.9,13.2-13.2C283.5,1017.6,277.6,1011.7,270.3,1011.7z
		 M49.4,1136.9v19.8H234v-19.8H49.4z"/>
</g>
</svg>
