<?xml version="1.0" encoding="utf-8"?>
<!-- Generator: Adobe Illustrator 25.0.1, SVG Export Plug-In . SVG Version: 6.00 Build 0)  -->
<svg version="1.1" id="Calque_1" xmlns="http://www.w3.org/2000/svg" xmlns:xlink="http://www.w3.org/1999/xlink" x="0px" y="0px"
	 viewBox="0 0 57.7 23.5" style="enable-background:new 0 0 57.7 23.5;" xml:space="preserve">
<style type="text/css">
	.st0{fill:#FFFFFF;}
</style>
<path class="st0" d="M3.9,16.3c-2.2,0-3.9-1.7-3.9-4c0-2.1,1.8-3.9,3.9-3.9L22,8.5c2.1,0,3.9,1.8,3.9,3.9s-1.8,3.9-3.9,3.9H3.9z"/>
<g>
	<g>
		<path class="st0" d="M33.2,23.5h-1.3c-1,0-1.7-0.8-1.7-1.7v-15l-1.4,0.8c-0.7,0.4-1.5,0.5-2.1-0.1l-0.4-0.4
			c-0.3-0.3-0.5-0.7-0.5-1c0-0.3,0.1-0.7,0.4-1l4.3-4.4C30.9,0.3,31.3,0,31.9,0h1.3c1,0,1.7,0.8,1.7,1.7v20
			C34.9,22.7,34.1,23.5,33.2,23.5z"/>
		<path class="st0" d="M48,23.5h-5.4c-2.7,0-4.9-2.1-4.9-4.7V4.7c0-2.6,2.2-4.7,4.9-4.7H48c2.7,0,5,2.1,5,4.7v14.1
			C53,21.4,50.7,23.5,48,23.5z M48.2,5.7c0-0.9-0.7-1.6-1.6-1.6H44c-0.9,0-1.6,0.7-1.6,1.6v12.2c0,0.9,0.7,1.6,1.6,1.6h2.6
			c0.9,0,1.6-0.7,1.6-1.6V5.7z"/>
	</g>
</g>
</svg>
