<?xml version="1.0" encoding="utf-8"?>
<!-- Generator: Adobe Illustrator 24.1.1, SVG Export Plug-In . SVG Version: 6.00 Build 0)  -->
<svg version="1.1" id="Calque_1" xmlns="http://www.w3.org/2000/svg" xmlns:xlink="http://www.w3.org/1999/xlink" x="0px" y="0px"
	 viewBox="0 0 269.5 189.8" style="enable-background:new 0 0 269.5 189.8;" xml:space="preserve">
<style type="text/css">
	.st0{fill:#FFFFFF;}
</style>
<g>
	<path class="st0" d="M135.4,83.7c-23.1,0-41.9-18.8-41.9-41.9C93.5,18.8,112.3,0,135.4,0c23.1,0,41.9,18.8,41.9,41.9
		C177.3,65,158.5,83.7,135.4,83.7z M135.4,11.7c-16.6,0-30.2,13.5-30.2,30.2S118.8,72,135.4,72c16.6,0,30.2-13.5,30.2-30.2
		S152,11.7,135.4,11.7z"/>
</g>
<g>
	<path class="st0" d="M215.5,76.3c-17.7,0-32.2-14.4-32.2-32.2S197.7,12,215.5,12s32.2,14.4,32.2,32.2S233.2,76.3,215.5,76.3z
		 M215.5,23.7c-11.3,0-20.4,9.2-20.4,20.4s9.2,20.4,20.4,20.4s20.4-9.2,20.4-20.4S226.7,23.7,215.5,23.7z"/>
</g>
<g>
	<path class="st0" d="M69.4,153.8H22.2c-0.4,0-0.7,0-1-0.1C8.9,151.5,0,140.9,0,128.4v-9.7c0-29.8,24.3-54.1,54.1-54.1
		c18.2,0,35.1,9.1,45.2,24.4c1.7,2.5,1.1,5.9-1.2,7.8c-14.5,11.5-22.8,28.7-22.8,47.1v4.1C75.2,151.2,72.6,153.8,69.4,153.8z
		 M22.7,142.1h40.8c0.5-19.5,8.7-37.6,22.9-50.8c-8-9.5-19.8-15-32.3-15c-23.4,0-42.4,19-42.4,42.4v9.7
		C11.7,135,16.3,140.7,22.7,142.1z"/>
</g>
<g>
	<path class="st0" d="M247.4,153.8h-46c-3.2,0-5.9-2.6-5.9-5.9v-4.1c0-17.7-7.8-34.4-21.3-45.9c-0.7-0.6-1.4-1.2-2.3-1.8
		c-2.5-1.9-3-5.4-1.3-7.9c10.1-14.8,26.8-23.6,44.7-23.6c29.8,0,54.1,24.3,54.1,54.1v9.7c0,12.4-8.9,23.1-21.1,25.3
		C248.1,153.8,247.7,153.8,247.4,153.8z M207.3,142.1h39.5c6.4-1.4,11-7.1,11-13.7v-9.7c0-23.4-19-42.4-42.4-42.4
		c-12.2,0-23.8,5.3-31.8,14.3C198.3,103.9,206.8,122.4,207.3,142.1z"/>
</g>
<g>
	<path class="st0" d="M179.1,189.8H91.7c-0.4,0-0.7,0-1-0.1c-15.7-2.9-27.1-16.5-27.1-32.5v-13.3c0-22,9.9-42.6,27.2-56.3
		C103.5,77.4,119,72,135.4,72c16,0,31.1,5.1,43.8,14.9c1,0.8,1.9,1.5,2.7,2.2c16.2,13.7,25.4,33.7,25.4,54.8v13.3
		c0,16-11.4,29.6-27.1,32.5C179.8,189.8,179.5,189.8,179.1,189.8z M92.3,178.1h86.3c9.9-2,17-10.7,17-20.9v-13.3
		c0-17.7-7.8-34.4-21.3-45.9c-0.7-0.6-1.4-1.2-2.3-1.8c-10.6-8.1-23.3-12.4-36.6-12.4c-13.7,0-26.7,4.5-37.4,13
		c-14.5,11.5-22.8,28.7-22.8,47.1v13.3C75.2,167.4,82.4,176.1,92.3,178.1z"/>
</g>
<g>
	<path class="st0" d="M54.1,76.3c-17.7,0-32.2-14.4-32.2-32.2S36.3,12,54.1,12c17.7,0,32.2,14.4,32.2,32.2S71.8,76.3,54.1,76.3z
		 M54.1,23.7c-11.3,0-20.4,9.2-20.4,20.4s9.2,20.4,20.4,20.4s20.4-9.2,20.4-20.4S65.4,23.7,54.1,23.7z"/>
</g>
</svg>
