<?xml version="1.0" encoding="utf-8"?>
<!-- Generator: Adobe Illustrator 25.2.1, SVG Export Plug-In . SVG Version: 6.00 Build 0)  -->
<svg version="1.1" id="Calque_1" xmlns="http://www.w3.org/2000/svg" xmlns:xlink="http://www.w3.org/1999/xlink" x="0px" y="0px"
	 viewBox="0 0 222.4 255" style="enable-background:new 0 0 222.4 255;" xml:space="preserve">
<style type="text/css">
	.st0{fill:#FFFFFF;}
</style>
<path class="st0" d="M222.4,176.1v-19.2V36V9.8c0-3.1-1.5-6.1-4-7.9c-2.5-1.9-5.8-2.4-8.8-1.4L81,41.9c-4,1.3-6.8,5.1-6.8,9.3v26.1
	v94.9c0,7.2-5.8,13-13,13H46.9l0,0C21,185.2,0,200.9,0,220.1S21,255,46.9,255c25.9,0,46.9-15.6,46.9-34.9v0l0.1,0v-22.9V84.5
	l109-35.1V129c-0.2,7-5.9,12.7-13,12.7h-14.2l0,0c-25.9,0-46.9,15.6-46.9,34.9c0,19.3,21,34.9,46.9,34.9s46.8-15.6,46.8-34.9
	C222.4,176.4,222.4,176.2,222.4,176.1z"/>
</svg>
