<?xml version="1.0" encoding="utf-8"?>
<!-- Generator: Adobe Illustrator 24.1.1, SVG Export Plug-In . SVG Version: 6.00 Build 0)  -->
<svg version="1.1" id="Calque_1" xmlns="http://www.w3.org/2000/svg" xmlns:xlink="http://www.w3.org/1999/xlink" x="0px" y="0px"
	 viewBox="0 0 225 225" style="enable-background:new 0 0 225 225;" xml:space="preserve">
<style type="text/css">
	.st0{fill:#FFFFFF;}
</style>
<g>
	<path class="st0" d="M200.1,112.5c0,13.3-2.9,26-8,37.4l18.7,18.7c9.1-16.6,14.2-35.8,14.2-56.1C225,57.9,187.5,11.6,137.7,0v26.4
		C174,37.3,200.1,72,200.1,112.5z"/>
	<polygon class="st0" points="112.5,9.6 82.6,40.4 112.5,70.3 	"/>
	<path class="st0" d="M209.1,195L15.9,1.8L1.8,15.9l53,53L50,75H0v75h50l62.5,65.4v-88.8l55.6,55.5c-8.9,7.5-19.3,13.2-30.4,16.6
		V225c18.2-4.2,34.6-13,48.2-25.1l23.2,23.3l14.1-14.1L209.1,195L209.1,195z"/>
	<path class="st0" d="M168.9,112.5c0-22.5-12.4-42.4-31.2-52.1v35.1l29.8,29.8C168.4,121.1,168.9,116.9,168.9,112.5z"/>
</g>
</svg>
