<?xml version="1.0" encoding="utf-8"?>
<!-- Generator: Adobe Illustrator 24.1.1, SVG Export Plug-In . SVG Version: 6.00 Build 0)  -->
<svg version="1.1" id="Calque_1" xmlns="http://www.w3.org/2000/svg" xmlns:xlink="http://www.w3.org/1999/xlink" x="0px" y="0px"
	 viewBox="0 0 193.8 168.7" style="enable-background:new 0 0 193.8 168.7;" xml:space="preserve">
<g>
	<path d="M40.7,58.5c9-39.1,50.2-52,80.6-38.8L137.6,0l11.7,9.7l-132.1,159L5.5,159l13.6-16.4C-12,121.3-5.4,63,40.7,58.5L40.7,58.5
		z M112.1,30.7c-23.9-8.1-54.5,3.6-59,35.3l-0.8,5.9h-5.9C9.6,71.8,4,117,27.9,132L112.1,30.7L112.1,30.7z M139.7,32.6
		c6.3,6.7,11,15.4,13.5,25.9c56.5,5.5,53.6,92-5.2,92H45.9c-1.4,0-2.7-0.1-4-0.2l11.2-13.5h94.9c42.9,0,43.6-65.1-0.5-65.1h-5.9
		l-0.8-5.9c-1.3-9.3-4.9-16.9-9.9-22.7L139.7,32.6z"/>
</g>
</svg>
