<?xml version="1.0" encoding="utf-8"?>
<!-- Generator: Adobe Illustrator 24.0.0, SVG Export Plug-In . SVG Version: 6.00 Build 0)  -->
<svg version="1.1"
	 id="Calque_1" xmlns:cc="http://creativecommons.org/ns#" xmlns:dc="http://purl.org/dc/elements/1.1/" xmlns:inkscape="http://www.inkscape.org/namespaces/inkscape" xmlns:rdf="http://www.w3.org/1999/02/22-rdf-syntax-ns#" xmlns:sodipodi="http://sodipodi.sourceforge.net/DTD/sodipodi-0.dtd" xmlns:svg="http://www.w3.org/2000/svg"
	 xmlns="http://www.w3.org/2000/svg" xmlns:xlink="http://www.w3.org/1999/xlink" x="0px" y="0px" viewBox="0 0 90 102"
	 style="enable-background:new 0 0 90 102;" xml:space="preserve">
<style type="text/css">
	.st0{fill:#FFFFFF;}
</style>
<path class="st0" d="M25.2,102H12.6C5.6,102,0,96.4,0,89.4V12.6C0,5.6,5.6,0,12.6,0h12.6c7,0,12.6,5.6,12.6,12.6v76.8
	C37.8,96.4,32.1,102,25.2,102z"/>
<path class="st0" d="M77.4,102H64.8c-7,0-12.6-5.6-12.6-12.6V12.6c0-7,5.6-12.6,12.6-12.6h12.6C84.4,0,90,5.6,90,12.6v76.8
	C90,96.4,84.4,102,77.4,102z"/>
</svg>
