<?xml version="1.0" encoding="utf-8"?>
<!-- Generator: Adobe Illustrator 24.0.0, SVG Export Plug-In . SVG Version: 6.00 Build 0)  -->
<svg version="1.1" id="Calque_1" xmlns="http://www.w3.org/2000/svg" xmlns:xlink="http://www.w3.org/1999/xlink" x="0px" y="0px"
	 viewBox="0 0 273.9 274.7" style="enable-background:new 0 0 273.9 274.7;" xml:space="preserve">
<style type="text/css">
	.st0{fill-rule:evenodd;clip-rule:evenodd;fill:#FFFFFF;}
</style>
<g>
	<path class="st0" d="M9.3,0h208.5c5.1,0,9.3,4.2,9.3,9.3v209.3c0,5.1-4.2,9.3-9.3,9.3H9.3c-5.1,0-9.3-4.2-9.3-9.3V9.3
		C0,4.2,4.2,0,9.3,0z M246.1,46.7h18.5c5.1,0,9.3,4.2,9.3,9.3v209.3c0,5.1-4.2,9.3-9.3,9.3H56.1c-5.1,0-9.3-4.2-9.3-9.3v-18.5h171.1
		c15.5,0,28.2-12.7,28.2-28.2L246.1,46.7L246.1,46.7z M79.2,126.6h0.1V70.9c0-4.3,3.5-7.4,7.8-7.8l76.1-7.5c4.3-0.4,7.9,3.5,7.8,7.8
		l-2,82.8c1.8,13.7-8.8,26-22.7,26c-12.7,0-22.9-10.3-22.9-22.9c0-12.7,10.3-22.9,22.9-22.9c1.4,0,2.8,0.1,4.1,0.4l0.6-30.5
		l-49.8,7.1v39.7c4.2,14.5-6.6,29.3-22,29.3c-12.7,0-22.9-10.3-22.9-22.9C56.2,136.8,66.5,126.6,79.2,126.6L79.2,126.6z"/>
</g>
</svg>
