<?xml version="1.0" encoding="utf-8"?>
<!-- Generator: Adobe Illustrator 25.0.1, SVG Export Plug-In . SVG Version: 6.00 Build 0)  -->
<svg version="1.1" id="Calque_1" xmlns="http://www.w3.org/2000/svg" xmlns:xlink="http://www.w3.org/1999/xlink" x="0px" y="0px"
	 viewBox="0 0 125.7 53.6" style="enable-background:new 0 0 125.7 53.6;" xml:space="preserve">
<style type="text/css">
	.st0{fill:#FFFFFF;}
</style>
<path class="st0" d="M26.7,53.6c-2.8,0-5.1-2.3-5.1-5.1V32H5.1C2.2,32,0,29.7,0,26.7c0-2.8,2.3-5.1,5.1-5.1h16.6V5.1
	C21.7,2.3,24,0,26.8,0S32,2.3,32,5.1v16.6h16.3c2.8,0,5.1,2.3,5.1,5.1S51.1,32,48.2,32H31.8v16.5C31.8,51.3,29.5,53.6,26.7,53.6z"/>
<g>
	<g>
		<path class="st0" d="M72.1,47.8h-2.7c-2,0-3.5-1.6-3.5-3.5V13.7l-2.8,1.7c-1.4,0.8-3.1,1-4.2-0.1l-0.8-0.8
			c-0.6-0.6-0.9-1.3-0.9-2.1c0-0.7,0.3-1.5,0.8-2.1l8.8-9C67.5,0.7,68.4,0,69.5,0h2.7c2,0,3.5,1.6,3.5,3.5v40.8
			C75.7,46.3,74.1,47.8,72.1,47.8z"/>
		<path class="st0" d="M102.3,47.8h-11c-5.6,0-10-4.2-10-9.6V9.6c0-5.3,4.5-9.6,10-9.6h11c5.6,0,10.1,4.2,10.1,9.6v28.7
			C112.4,43.6,107.9,47.8,102.3,47.8z M102.7,11.5c0-1.8-1.4-3.2-3.2-3.2h-5.2c-1.8,0-3.2,1.4-3.2,3.2v24.8c0,1.8,1.4,3.2,3.2,3.2
			h5.2c1.8,0,3.2-1.4,3.2-3.2V11.5z"/>
	</g>
</g>
</svg>
