<?xml version="1.0" encoding="utf-8"?>
<!-- Generator: Adobe Illustrator 24.0.0, SVG Export Plug-In . SVG Version: 6.00 Build 0)  -->
<svg version="1.1" id="Calque_1" xmlns="http://www.w3.org/2000/svg" xmlns:xlink="http://www.w3.org/1999/xlink" x="0px" y="0px"
	 viewBox="0 0 260 251.6" style="enable-background:new 0 0 260 251.6;" xml:space="preserve">
<style type="text/css">
	.st0{fill:#FFFFFF;}
</style>
<path class="st0" d="M27.1,112.4c-3.5,0-6.5-2.3-7.6-5.6L0.2,42.5c-0.5-1.7,0-3.6,1.4-4.7c0.8-0.6,1.8-1,2.8-1
	c0.7,0,1.5,0.2,2.1,0.5l28.3,15.2l2.6-3.4C60.5,18.3,96.1,0,132.8,0c8.3,0,16.6,0.9,24.7,2.7c41.9,9.4,75.3,42.2,87.1,85.6
	c2.4,8.8-2.8,18-11.7,20.4c-1.4,0.4-2.9,0.6-4.4,0.6c-7.5,0-14-5-16-12.2c-8.6-31.5-32.5-55.3-62.4-62c-5.7-1.3-11.6-1.9-17.4-1.9
	c-24.1,0-47.7,11.1-64.5,30.3l-4.1,4.7l30.3,16.3c1.6,0.9,2.5,2.6,2.3,4.4s-1.4,3.3-3.1,3.8l-64.3,19.4
	C28.6,112.3,27.9,112.4,27.1,112.4z"/>
<path class="st0" d="M127.1,251.6c-8.3,0-16.6-0.9-24.7-2.7c-42-9.4-75.3-42.2-87.1-85.6c-1.2-4.3-0.6-8.7,1.6-12.6
	c2.2-3.8,5.8-6.6,10-7.8c1.4-0.4,2.9-0.6,4.4-0.6c7.5,0,14,5,16,12.2c8.6,31.5,32.5,55.3,62.4,62c5.7,1.3,11.6,1.9,17.4,1.9
	c24.1,0,47.7-11.1,64.5-30.3l4.1-4.7l-30.3-16.3c-1.6-0.9-2.5-2.6-2.3-4.4c0.2-1.8,1.4-3.3,3.1-3.8l64.3-19.4
	c0.8-0.2,1.6-0.3,2.3-0.3c3.5,0,6.5,2.3,7.5,5.6l19.2,63.6l0.1,0.2c0.2,0.5,0.3,1.1,0.3,1.7c0,2.4-2,4.4-4.4,4.4
	c-0.8,0-1.5-0.2-2.1-0.5L225.1,199l-2.6,3.4C199.5,233.3,163.8,251.6,127.1,251.6z"/>
</svg>
