<?xml version="1.0" encoding="utf-8"?>
<!-- Generator: Adobe Illustrator 23.1.0, SVG Export Plug-In . SVG Version: 6.00 Build 0)  -->
<svg version="1.1" id="Calque_1" xmlns="http://www.w3.org/2000/svg" xmlns:xlink="http://www.w3.org/1999/xlink" x="0px" y="0px"
	 viewBox="0 0 183.27 183.27" style="enable-background:new 0 0 183.27 183.27;" xml:space="preserve">
<style type="text/css">
	.st0{fill:#FFFFFF;}
</style>
<path class="st0" d="M91.63,183.27C41.11,183.27,0,142.16,0,91.63C0,41.11,41.11,0,91.63,0s91.63,41.11,91.63,91.63
	C183.27,142.16,142.16,183.27,91.63,183.27z M91.63,18.57c-40.29,0-73.07,32.78-73.07,73.07s32.78,73.06,73.07,73.06
	c40.29,0,73.07-32.78,73.07-73.06S131.92,18.57,91.63,18.57z"/>
<path class="st0" d="M52.93,100.77c-5.21,0-9.13-4.06-9.13-9.44c0-5.04,4.1-9.13,9.13-9.13l76.8,0.3c5.04,0,9.14,4.1,9.14,9.13
	s-4.1,9.13-9.14,9.13H52.93z"/>
</svg>
