<svg height='300px' width='300px'  fill="#ffffff" xmlns="http://www.w3.org/2000/svg" xmlns:xlink="http://www.w3.org/1999/xlink" version="1.1" x="0px" y="0px" viewBox="0 0 100 100" enable-background="new 0 0 100 100" xml:space="preserve"><path d="M28.7,62.8l27.7,14.9c-0.1,0.6-0.1,1.3-0.1,1.9c0,9.2,7.5,16.7,16.7,16.7c9.2,0,16.7-7.5,16.7-16.7  c0-9.2-7.5-16.6-16.7-16.6c-3.9,0-7.7,1.4-10.7,3.9L34.5,51.9c0.1-0.6,0.1-1.3,0.1-1.9c0-0.6,0-1.3-0.1-1.9l27.7-14.9  c3,2.5,6.8,3.9,10.7,3.9c9.2,0,16.7-7.5,16.7-16.6c0-9.2-7.5-16.7-16.7-16.7c-9.2,0-16.7,7.5-16.7,16.7c0,0.6,0,1.3,0.1,1.9  L28.7,37.2c-3-2.5-6.8-3.9-10.7-3.9C8.8,33.4,1.3,40.8,1.3,50c0,9.2,7.5,16.6,16.7,16.6C21.9,66.6,25.7,65.3,28.7,62.8z"></path></svg>