<svg height='300px' width='300px'  fill="#ffffff" xmlns="http://www.w3.org/2000/svg" xmlns:xlink="http://www.w3.org/1999/xlink" xml:space="preserve" version="1.1" style="shape-rendering:geometricPrecision;text-rendering:geometricPrecision;image-rendering:optimizeQuality;" viewBox="0 0 5.483 3.29" x="0px" y="0px" fill-rule="evenodd" clip-rule="evenodd"><defs><style type="text/css">
   
    .fil0 {fill:#ffffff;fill-rule:nonzero}
   
  </style></defs><g><path class="fil0" d="M2.741 3.29c-0.584,0 -1.102,-0.198 -1.555,-0.492 -0.443,-0.287 -0.822,-0.664 -1.142,-1.034 -0.06,-0.069 -0.058,-0.171 0.001,-0.239 0.353,-0.408 0.818,-0.825 1.331,-1.118 0.432,-0.246 0.899,-0.407 1.365,-0.407 0.467,0 0.934,0.161 1.366,0.407 0.512,0.294 0.978,0.711 1.331,1.119 0.06,0.07 0.059,0.172 0,0.239 -0.32,0.369 -0.699,0.747 -1.141,1.033 -0.453,0.294 -0.971,0.492 -1.556,0.492zm0 -2.595c0.525,0 0.951,0.425 0.951,0.95 0,0.525 -0.426,0.951 -0.951,0.951 -0.525,0 -0.95,-0.426 -0.95,-0.951 0,-0.525 0.425,-0.95 0.95,-0.95zm-1.357 1.798c0.398,0.258 0.85,0.432 1.357,0.432 0.507,0 0.959,-0.174 1.357,-0.432 0.362,-0.235 0.681,-0.539 0.959,-0.847 -0.313,-0.341 -0.705,-0.678 -1.132,-0.922 -0.38,-0.217 -0.786,-0.358 -1.184,-0.358 -0.397,0 -0.803,0.141 -1.183,0.358 -0.427,0.244 -0.819,0.581 -1.132,0.922 0.277,0.308 0.597,0.612 0.958,0.847z"></path></g></svg>