<?xml version="1.0" encoding="utf-8"?>
<!-- Generator: Adobe Illustrator 24.1.1, SVG Export Plug-In . SVG Version: 6.00 Build 0)  -->
<svg version="1.1" id="Calque_1" xmlns="http://www.w3.org/2000/svg" xmlns:xlink="http://www.w3.org/1999/xlink" x="0px" y="0px"
	 viewBox="0 0 300.5 159.6" style="enable-background:new 0 0 300.5 159.6;" xml:space="preserve">
<style type="text/css">
	.st0{fill-rule:evenodd;clip-rule:evenodd;fill:#FFFFFF;}
	.st1{fill:#FFFFFF;}
</style>
<circle class="st0" cx="149.7" cy="35.9" r="35.9"/>
<path class="st1" d="M247.6,53.3l-16.3-3.8l0.6-2.8c0.9-3.7,1.9-6.3,3.1-7.8c1.2-1.6,3-2.6,5.4-3l3.3-0.6c2.5-0.5,3.9-1.6,4.4-3.4
	c0.2-1.1,0.1-2-0.5-2.9c-0.6-0.9-1.4-1.5-2.4-1.7c-2.9-0.7-4.8,1-5.7,5l-15.2-3.5c1.2-5.3,3.5-9.4,6.7-12.2c2.4-2.1,5.2-3.5,8.5-4.3
	c3.2-0.8,6.4-0.8,9.5-0.1c5.5,1.3,9.7,4.2,12.7,8.7c2.9,4.5,3.8,9.5,2.5,14.9c-1.5,6.7-5.3,10.7-11.4,12.2c-2,0.5-3.2,1-3.7,1.5
	C248.6,49.8,248.1,51.1,247.6,53.3z M237.1,61.8c2.9,0.7,5.1,2.3,6.7,4.8c1.6,2.6,2,5.3,1.4,8.2c-0.7,2.9-2.3,5.1-4.8,6.6
	c-2.5,1.5-5.2,2-8.1,1.3c-3-0.7-5.3-2.3-6.8-4.7c-1.5-2.4-1.9-5.1-1.2-8.1c0.7-2.9,2.3-5.2,4.8-6.8
	C231.6,61.5,234.3,61.1,237.1,61.8z"/>
<path class="st1" d="M73.5,49.3l-16.2,4.3l-0.7-2.8c-1-3.6-1.3-6.4-0.9-8.4c0.4-1.9,1.5-3.7,3.4-5.2l2.6-2.1c2-1.6,2.7-3.3,2.3-5.1
	c-0.3-1-0.9-1.8-1.8-2.4c-0.9-0.5-1.9-0.7-3-0.4c-2.9,0.8-3.8,3.1-2.7,7.1l-15.1,4c-1.4-5.3-1.3-9.9,0.2-13.9c1.2-3,3-5.5,5.5-7.8
	c2.5-2.2,5.3-3.7,8.4-4.5c5.5-1.4,10.6-0.8,15.3,1.8c4.7,2.6,7.8,6.6,9.2,12c1.7,6.6,0.3,12-4.4,16.1c-1.5,1.3-2.4,2.4-2.6,3.1
	C72.8,45.8,73,47.2,73.5,49.3z M68.3,61.7c2.9-0.8,5.6-0.4,8.2,1.2c2.6,1.5,4.3,3.7,5,6.6c0.8,2.9,0.4,5.5-1.1,8.1s-3.7,4.2-6.6,4.9
	c-3,0.8-5.7,0.5-8.2-0.9c-2.4-1.4-4.1-3.6-4.9-6.6c-0.8-2.9-0.4-5.6,1.1-8.2C63.3,64.1,65.4,62.5,68.3,61.7z"/>
<path class="st0" d="M271.3,77.6l-41.7,41.7l-38.2-35.9c-12.7-11.6-18.5,0-26.6,0h-29c-9.3,0-13.9-11.6-26.6,0l-38.2,35.9L29.2,77.6
	C13,62.5-10.2,85.7,4.9,101.9l53.3,52.1c6.9,6.9,16.2,6.9,23.2,1.2l24.3-23.2v27.6h89.2V132l24.3,23.2c6.9,5.8,16.2,5.8,23.2-1.2
	l53.3-52.1C310.7,85.7,287.5,62.5,271.3,77.6z"/>
</svg>
