<?xml version="1.0" encoding="utf-8"?>
<!-- Generator: Adobe Illustrator 24.1.1, SVG Export Plug-In . SVG Version: 6.00 Build 0)  -->
<svg version="1.1" id="Calque_1" xmlns="http://www.w3.org/2000/svg" xmlns:xlink="http://www.w3.org/1999/xlink" x="0px" y="0px"
	 viewBox="0 0 269.5 189.8" style="enable-background:new 0 0 269.5 189.8;" xml:space="preserve">
<style type="text/css">
	.st0{fill:#FFFFFF;}
</style>
<g>
	<path class="st0" d="M135.4,83.7c-23.1,0-41.9-18.8-41.9-41.9C93.5,18.8,112.3,0,135.4,0c23.1,0,41.9,18.8,41.9,41.9
		C177.3,65,158.5,83.7,135.4,83.7z M135.4,11.7c-16.6,0-30.2,13.5-30.2,30.2S118.8,72,135.4,72c16.6,0,30.2-13.5,30.2-30.2
		S152,11.7,135.4,11.7z"/>
</g>
<g>
	<path class="st0" d="M179.1,189.8H91.7c-0.4,0-0.7,0-1-0.1c-15.7-2.9-27.1-16.5-27.1-32.5v-13.3c0-22,9.9-42.6,27.2-56.3
		C103.5,77.4,119,72,135.4,72c16,0,31.1,5.1,43.8,14.9c1,0.8,1.9,1.5,2.7,2.2c16.2,13.7,25.4,33.7,25.4,54.8v13.3
		c0,16-11.4,29.6-27.1,32.5C179.8,189.8,179.5,189.8,179.1,189.8z M92.3,178.1h86.3c9.9-2,17-10.7,17-20.9v-13.3
		c0-17.7-7.8-34.4-21.3-45.9c-0.7-0.6-1.4-1.2-2.3-1.8c-10.6-8.1-23.3-12.4-36.6-12.4c-13.7,0-26.7,4.5-37.4,13
		c-14.5,11.5-22.8,28.7-22.8,47.1v13.3C75.2,167.4,82.4,176.1,92.3,178.1z"/>
</g>
</svg>
