<?xml version="1.0" encoding="utf-8"?>
<!-- Generator: Adobe Illustrator 25.0.1, SVG Export Plug-In . SVG Version: 6.00 Build 0)  -->
<svg version="1.1" id="Layer_1" xmlns="http://www.w3.org/2000/svg" xmlns:xlink="http://www.w3.org/1999/xlink" x="0px" y="0px"
	 viewBox="0 0 240 240" style="enable-background:new 0 0 240 240;" xml:space="preserve">
<style type="text/css">
	.st0{fill:#1DB954;}
</style>
<g>
	<path class="st0" d="M188.5,129.1c-0.1-0.1-0.1-0.1-0.2-0.2C188.4,129,188.5,129,188.5,129.1z"/>
	<path class="st0" d="M189.1,129.8l0.1,0.1C189.2,129.8,189.1,129.8,189.1,129.8z"/>
	<path class="st0" d="M49.2,112.9c-0.1,0.1-0.2,0.1-0.2,0.2C49,113,49.1,113,49.2,112.9z"/>
	<path class="st0" d="M51.8,111.6c-0.3,0.1-0.6,0.2-0.8,0.3C51.3,111.8,51.6,111.7,51.8,111.6c23.2-7,49.3-8.5,74.3-4.9
		C101.1,103.1,75,104.6,51.8,111.6z"/>
	<path class="st0" d="M173.3,163.3c0.1,0.1,0.1,0.1,0.2,0.2C173.4,163.4,173.3,163.3,173.3,163.3z"/>
	<path class="st0" d="M50.7,112c-0.2,0.1-0.3,0.2-0.5,0.2C50.4,112.2,50.6,112.1,50.7,112z"/>
	<path class="st0" d="M49.9,112.4c-0.1,0.1-0.3,0.2-0.4,0.2C49.6,112.6,49.8,112.5,49.9,112.4z"/>
	<path class="st0" d="M56,149.4L56,149.4L56,149.4c19.3-4.4,37.5-6.2,54.4-5.2C93.5,143.3,75.3,145,56,149.4z"/>
	<path class="st0" d="M174.1,164c-0.1-0.1-0.1-0.1-0.2-0.2C174,163.9,174,164,174.1,164z"/>
	<path class="st0" d="M172.6,162.8c-6-3.7-12.3-6.8-18.8-9.4C160.3,156,166.6,159.1,172.6,162.8L172.6,162.8L172.6,162.8z"/>
	<path class="st0" d="M174.5,164.5l0.1,0.1C174.6,164.6,174.5,164.6,174.5,164.5z"/>
	<path class="st0" d="M164.2,116.5c-9.1-3.5-18.8-6.3-28.8-8.3C145.4,110.2,155.1,112.9,164.2,116.5z"/>
	<path class="st0" d="M54.9,149.8c-0.1,0-0.1,0.1-0.2,0.1C54.8,149.8,54.9,149.8,54.9,149.8z"/>
	<path class="st0" d="M53.8,150.3l-0.1,0.1C53.7,150.4,53.7,150.4,53.8,150.3z"/>
	<path class="st0" d="M76.3,64.9c9.7-1.1,19.9-1.5,30.4-1.4C96.3,63.3,86,63.8,76.3,64.9z"/>
	<path class="st0" d="M43.1,71.8c0.2-0.1,0.3-0.2,0.5-0.3C43.5,71.6,43.3,71.7,43.1,71.8z"/>
	<path class="st0" d="M44.1,71.4c0.3-0.1,0.6-0.2,0.9-0.3C44.6,71.2,44.4,71.3,44.1,71.4z"/>
	<path class="st0" d="M42.3,72.3c0.1-0.1,0.3-0.2,0.4-0.2C42.6,72.1,42.4,72.2,42.3,72.3z"/>
	<path class="st0" d="M186.6,127.5c-6.9-4.3-14.5-8-22.5-11.1C172.1,119.6,179.7,123.3,186.6,127.5L186.6,127.5L186.6,127.5z"/>
	<path class="st0" d="M41.6,72.8c0.1-0.1,0.1-0.1,0.2-0.2C41.7,72.7,41.7,72.7,41.6,72.8z"/>
	<path class="st0" d="M203.5,87.8c0.1,0.1,0.2,0.2,0.3,0.2C203.7,88,203.6,87.9,203.5,87.8z"/>
	<path class="st0" d="M240,120C240,53.7,186.3,0,120,0l0,0C53.7,0,0,53.7,0,120s53.7,120,120,120S240,186.3,240,120L240,120L240,120
		z M175,173.1c-2.2,3.5-6.8,4.6-10.3,2.5c-28.2-17.2-63.6-21.1-105.4-11.6c-4,0.9-8-1.6-9-5.6c-0.2-0.8-0.2-1.6-0.2-2.3
		c-0.1-3.5,2.3-6.6,5.8-7.4c45.7-10.4,84.9-6,116.6,13.4c2.3,1.4,3.6,3.9,3.5,6.5C176.2,170,175.9,171.6,175,173.1z M189.7,140.4
		c-2.7,4.4-8.5,5.8-12.9,3.1c-32.2-19.8-81.4-25.6-119.6-14c-4.9,1.5-10.2-1.3-11.7-6.2c-0.3-1-0.4-2.1-0.4-3.1
		c-0.2-4.2,2.5-8.1,6.6-9.3c43.6-13.2,97.8-6.8,134.8,15.9c2.8,1.8,4.4,4.8,4.4,7.9C191.2,136.6,190.8,138.6,189.7,140.4z
		 M206.4,102.5c-3.2,5.3-10.1,7.1-15.4,3.9c-38.7-23-102.5-25.1-139.4-13.9c-5.9,1.8-12.2-1.5-14-7.5c-0.4-1.2-0.5-2.5-0.5-3.7
		c-0.2-5,3-9.6,7.9-11.1c42.4-12.9,112.9-10.4,157.4,16.1c3.5,2.1,5.4,5.7,5.4,9.5C208.1,98,207.6,100.4,206.4,102.5z"/>
	<path class="st0" d="M187.5,128.2c0.1,0.1,0.1,0.1,0.2,0.2C187.7,128.3,187.6,128.2,187.5,128.2z"/>
	<path class="st0" d="M134.9,108.1c-0.1,0-0.2,0-0.4-0.1C134.6,108.1,134.7,108.1,134.9,108.1z"/>
	<path class="st0" d="M204.8,88.9c-0.1-0.1-0.2-0.2-0.3-0.3C204.6,88.8,204.7,88.8,204.8,88.9z"/>
	<path class="st0" d="M205.4,89.7c0.1,0.1,0.1,0.2,0.2,0.2C205.5,89.8,205.5,89.7,205.4,89.7z"/>
	<path class="st0" d="M207.4,93.3L207.4,93.3L207.4,93.3z"/>
</g>
</svg>
