<?xml version="1.0" encoding="utf-8"?>
<!-- Generator: Adobe Illustrator 24.1.1, SVG Export Plug-In . SVG Version: 6.00 Build 0)  -->
<svg version="1.1" id="Calque_1" xmlns="http://www.w3.org/2000/svg" xmlns:xlink="http://www.w3.org/1999/xlink" x="0px" y="0px"
	 viewBox="0 0 300 300" style="enable-background:new 0 0 300 300;" xml:space="preserve">
<style type="text/css">
	.st0{fill:#FFFFFF;}
</style>
<g>
	<path class="st0" d="M289.7,127.4l-62.9,61.3l14.9,86.6c0.2,1.2,0.2,2.3,0.2,3.5c0,4.5-2.1,8.6-7.1,8.6c-2.4,0-4.9-0.9-6.9-2.1
		L150,244.5l-77.8,40.9c-2.2,1.2-4.5,2.1-6.9,2.1c-5,0-7.3-4.2-7.3-8.6c0-1.2,0.2-2.3,0.3-3.5l14.9-86.6l-63.1-61.3
		c-2.1-2.3-4.3-5.2-4.3-8.3c0-5.2,5.4-7.3,9.7-8l87-12.7l39-78.9c1.6-3.3,4.5-7.1,8.5-7.1s6.9,3.8,8.5,7.1l39,78.8l87,12.7
		c4.1,0.7,9.7,2.8,9.7,8C294.2,122.2,291.9,125.1,289.7,127.4z"/>
</g>
</svg>
