<?xml version="1.0" encoding="utf-8"?>
<!-- Generator: Adobe Illustrator 25.0.1, SVG Export Plug-In . SVG Version: 6.00 Build 0)  -->
<svg version="1.1" id="Calque_1" xmlns="http://www.w3.org/2000/svg" xmlns:xlink="http://www.w3.org/1999/xlink" x="0px" y="0px"
	 viewBox="0 0 143.7 189.8" style="enable-background:new 0 0 143.7 189.8;" xml:space="preserve">
<style type="text/css">
	.st0{fill:#2F9DA7;}
</style>
<path class="st0" d="M118.3,89.1c-0.8-0.7-1.7-1.4-2.7-2.2c-6.1-4.7-12.7-8.3-19.7-10.8c10.8-7.6,17.8-20.1,17.8-34.2
	C113.7,18.8,94.9,0,71.8,0C48.7,0,29.9,18.8,29.9,41.8c0,14.2,7.1,26.7,17.9,34.3c-7.4,2.6-14.3,6.5-20.6,11.5
	C9.9,101.3,0,121.9,0,143.9v13.3c0,16,11.4,29.6,27.1,32.5c0.3,0.1,0.6,0.1,1,0.1h87.4c0.4,0,0.7,0,1.1-0.1
	c15.7-2.9,27.1-16.5,27.1-32.5v-13.3C143.7,122.8,134.5,102.8,118.3,89.1z"/>
</svg>
