<?xml version="1.0" encoding="utf-8"?>
<!-- Generator: Adobe Illustrator 24.0.0, SVG Export Plug-In . SVG Version: 6.00 Build 0)  -->
<svg version="1.1" id="Calque_1" xmlns="http://www.w3.org/2000/svg" xmlns:xlink="http://www.w3.org/1999/xlink" x="0px" y="0px"
	 viewBox="0 0 243.7 210.9" style="enable-background:new 0 0 243.7 210.9;" xml:space="preserve">
<style type="text/css">
	.st0{fill:#FFFFFF;}
</style>
<g>
	<path class="st0" d="M20.5,209.7c4.5,1.2,9.3,1.2,14.1,1.2c29.1,0,58.2,0,87.3,0s58.2,0,87.3,0c4.8,0,9.6,0,14.1-1.2
		c18-4.8,26.1-24.9,16.2-41.4C208.6,117,177.4,65.7,146.2,14.4c-5.7-9.6-15-14.1-24.3-14.4c-9.3,0-18.3,4.8-24.3,14.4
		c-31.5,51-62.4,102.3-93.3,153.9C-5.6,184.8,2.5,204.9,20.5,209.7z M121.9,183L121.9,183L121.9,183c-7.5,0-13.5-6-13.8-13.5
		c0-7.5,6-13.5,13.8-13.5c7.5,0,13.8,6,13.8,13.5C135.4,177,129.4,182.7,121.9,183z M106.9,69.9c0.3-8.7,6.3-14.7,14.7-15
		c0,0,0,0,0.3,0s0,0,0.3,0c8.7,0,14.7,6.3,14.7,15c0.3,9.3,0.3,45.3,0,54c-0.3,9.3-6,14.1-15,14.1s-14.7-4.8-15-14.1
		C106.6,115.2,106.6,79.2,106.9,69.9z"/>
</g>
</svg>
